<?xml version="1.0" encoding="utf-8"?>
<!-- Generator: Adobe Illustrator 24.0.0, SVG Export Plug-In . SVG Version: 6.00 Build 0)  -->
<svg version="1.1" xmlns="http://www.w3.org/2000/svg" xmlns:xlink="http://www.w3.org/1999/xlink" x="0px" y="0px"
	 viewBox="0 0 636.6 289.47" style="enable-background:new 0 0 636.6 289.47;" xml:space="preserve">
<style type="text/css">
	.st0{display:none;}
	.st1{display:inline;}
	.st2{fill:#46A499;stroke:#46A499;stroke-width:2;stroke-miterlimit:10;}
	.st3{font-family:'Roboto-Medium';}
	.st4{font-size:82.0343px;}
	.st5{fill:#46A499;}
	.st6{font-size:26.439px;}
	.st7{letter-spacing:2.15;}
	.st8{fill:#61B9AA;stroke:#61B9AA;stroke-miterlimit:10;}
	.st9{font-size:91.6309px;}
	.st10{fill:#03587C;}
	.st11{font-size:29.5319px;}
	.st12{letter-spacing:6.46;}
	.st13{fill:#388A96;}
	.st14{fill:#61B9AA;}
	.st15{display:inline;fill:none;}
	.st16{display:inline;fill:#61B9AA;stroke:#61B9AA;stroke-miterlimit:10;}
	.st17{display:inline;fill:#388A96;stroke:#388A96;stroke-miterlimit:10;}
</style>
<g id="Camada_1_copy" class="st0">
	<g class="st1">
		<g>
			<rect x="69.24" y="44.75" class="st2" width="17.59" height="196.51"/>
			<rect x="40.28" y="109.81" class="st2" width="17.59" height="81.32"/>
			<rect x="98.21" y="109.81" class="st2" width="17.59" height="81.32"/>
			<rect x="12.32" y="138.91" class="st2" width="17.59" height="23.12"/>
		</g>
		<g>
			<text transform="matrix(0.8208 0 0 1 132.5903 167.9658)" class="st2 st3 st4">INTERDIGITOS</text>
			<text transform="matrix(0.9287 0 0 1 136.4921 191.1323)" class="st5 st3 st6 st7">Real-time information</text>
		</g>
	</g>
</g>
<g id="Camada_1">
	<g>
		<g>
			<text transform="matrix(0.8208 0 0 1 125.723 170.3594)" class="st8 st3 st9">INTERDIGITOS</text>
			<text transform="matrix(0.9287 0 0 1 129.0818 196.2363)" class="st10 st3 st11 st12">Informação em tempo real</text>
		</g>
	</g>
	<g>
		<path class="st13" d="M72.67,141.29v25.54c1.35,1.27,2.72,2.61,4.1,4.03c5.85,5.98,11.7,10.21,17.49,12.97v-50.52
			C86.95,138.27,79.71,140.74,72.67,141.29z"/>
		<path class="st10" d="M72.67,169.83v76.44h21.59v-59.44c-5.78-2.77-11.64-6.99-17.49-12.97C75.38,172.43,74.02,171.1,72.67,169.83
			z"/>
		<path class="st14" d="M94.26,39.75H72.67v98.54c7.04-0.55,14.28-3.02,21.59-7.97V39.75z"/>
		<path class="st14" d="M65.3,104.81H43.71v25.35c6.77,4.28,14.03,7.19,21.59,8.01V104.81z"/>
		<path class="st13" d="M43.71,133.16v15.34c6.39,1.86,13.58,5.58,21.59,11.93v-19.26C57.73,140.35,50.47,137.44,43.71,133.16z"/>
		<path class="st10" d="M43.71,196.13H65.3v-32.7c-8.01-6.35-15.21-10.07-21.59-11.93V196.13z"/>
		<path class="st14" d="M123.22,105.94v-1.13h-21.59v19.65c1.12-1.02,2.24-2.08,3.35-3.22
			C111.52,114.57,117.59,109.58,123.22,105.94z"/>
		<path class="st13" d="M104.98,124.25c-1.12,1.14-2.24,2.2-3.35,3.22v59.13c7.42,2.03,14.66,1.79,21.59-0.11v-77.54
			C117.59,112.58,111.52,117.57,104.98,124.25z"/>
		<path class="st10" d="M101.63,189.59v6.54h21.59v-6.65C116.29,191.38,109.05,191.62,101.63,189.59z"/>
		<path class="st13" d="M15.75,136.91v15.55c5.17-3.53,12.37-6.35,21.59-5.27v-10.28H15.75z"/>
		<path class="st10" d="M15.75,155.46v11.57h21.59v-16.84C28.11,149.11,20.92,151.94,15.75,155.46z"/>
	</g>
	<g class="st0">
		<path class="st15" d="M354.12,114.34h-6.5v46.98h6.06c4.87,0,8.61-1.86,11.22-5.57c2.61-3.71,3.94-9.04,3.99-16v-3.62
			c0-7.07-1.26-12.47-3.78-16.2C362.58,116.21,358.92,114.34,354.12,114.34z"/>
		<path class="st15" d="M318.08,117.3c-1.63-1.91-4.06-2.89-7.29-2.95h-9.81v21.83h9.55c3.13,0,5.58-0.96,7.34-2.89
			s2.64-4.56,2.64-7.9C320.52,121.9,319.71,119.21,318.08,117.3z"/>
		<path class="st15" d="M266.17,132.33c-2.51-1.52-4.97-2.97-7.41-4.36v4.36H266.17z"/>
		<path class="st15" d="M429.69,162.22c4.75,0,8.13-1.31,10.14-3.94v-12.75H428.8v-4.8c-4.12,2.2-8.26,4.33-12.43,6.37
			c0.57,3.72,1.62,6.82,3.16,9.28C421.97,160.27,425.35,162.22,429.69,162.22z"/>
		<path class="st15" d="M593.21,113.38c3.36,2.84,6.5,5.86,9.43,9.02c-0.27-2.54-1.1-4.6-2.52-6.16
			C598.48,114.44,596.17,113.5,593.21,113.38z"/>
		<path class="st15" d="M543.66,113.72c-4.02,0-7.16,1.92-9.42,5.75c-2.26,3.83-3.42,9.25-3.47,16.26v3.76
			c0,7.16,1.14,12.69,3.43,16.6c2.29,3.91,5.47,5.86,9.53,5.86c4.11,0,7.28-1.91,9.49-5.73c2.22-3.82,3.32-9.4,3.32-16.73v-3.4
			c0-7.22-1.12-12.75-3.36-16.6C550.95,115.64,547.77,113.72,543.66,113.72z"/>
		<path class="st15" d="M300.98,145.3v8.79c5.77,2.91,11.47,5.22,17.11,6.98l-6.75-15.77H300.98z"/>
		<rect x="131.71" y="105.22" class="st16" width="9.25" height="65.14"/>
		<polygon class="st16" points="185.28,151.61 161.38,105.22 152.08,105.22 152.08,170.36 161.38,170.36 161.38,124.14 
			185.21,170.36 194.5,170.36 194.5,105.22 185.28,105.22 		"/>
		<path class="st17" d="M242.75,105.22h-34.36c7.42,2.37,15.33,5.37,23.74,9.13h10.62V105.22z"/>
		<path class="st16" d="M200.33,105.22v9.13h16.53v56.02h9.22v-56.02h6.05c-8.41-3.75-16.33-6.76-23.74-9.13H200.33z"/>
		<path class="st16" d="M258.76,132.33v-4.36c-3.15-1.81-6.25-3.52-9.29-5.14v47.53h34.96v-9.04h-25.67v-20.04h21.44
			c-4.79-3.2-9.47-6.18-14.03-8.95H258.76z"/>
		<path class="st17" d="M280.72,132.33h-14.55c4.57,2.77,9.25,5.75,14.03,8.95h0.52V132.33z"/>
		<path class="st17" d="M258.76,114.34h25.41v-9.13h-34.71v17.61c3.04,1.61,6.14,3.33,9.29,5.14V114.34z"/>
		<path class="st17" d="M327.22,135.87c1.73-2.94,2.59-6.59,2.59-10.95c0-6.39-1.68-11.27-5.03-14.64
			c-3.35-3.37-8.12-5.06-14.29-5.06h-18.8v43.68c3.12,1.91,6.21,3.64,9.29,5.2v-8.79h10.36l6.75,15.77
			c3.81,1.19,7.59,2.14,11.34,2.86l-9.42-21.28C323.09,141.07,325.5,138.81,327.22,135.87z M310.53,136.18h-9.55v-21.83h9.81
			c3.23,0.06,5.66,1.04,7.29,2.95c1.63,1.91,2.44,4.61,2.44,8.1c0,3.34-0.88,5.97-2.64,7.9S313.67,136.18,310.53,136.18z"/>
		<path class="st16" d="M291.69,170.36h9.29v-16.27c-3.08-1.56-6.18-3.29-9.29-5.2V170.36z"/>
		<path class="st16" d="M322.07,170.36h9.95v-0.58l-2.59-5.85c-3.75-0.72-7.53-1.67-11.34-2.86L322.07,170.36z"/>
		<path class="st16" d="M338.33,165.22v5.14h15.39c4.82,0,9.1-1.27,12.84-3.8c1.27-0.86,2.43-1.86,3.5-2.96
			C359.68,165.59,349.11,166.3,338.33,165.22z"/>
		<path class="st17" d="M378.21,139.44v-3.27c0-6.08-1-11.48-3.01-16.2c-2.01-4.71-4.84-8.35-8.5-10.92
			c-3.66-2.56-7.85-3.85-12.58-3.85h-15.79v60.01c10.79,1.08,21.35,0.37,31.72-1.63c2.08-2.16,3.8-4.77,5.13-7.86
			C377.2,151.05,378.21,145.62,378.21,139.44z M368.88,139.76c-0.05,6.95-1.38,12.28-3.99,16c-2.61,3.71-6.35,5.57-11.22,5.57h-6.06
			v-46.98h6.5c4.8,0,8.46,1.86,10.98,5.59c2.52,3.73,3.78,9.13,3.78,16.2V139.76z"/>
		<path class="st16" d="M387.72,170.36h9.25v-14.7c-3.07,1.19-6.15,2.29-9.25,3.31V170.36z"/>
		<path class="st17" d="M387.72,105.22v53.75c3.1-1.01,6.19-2.12,9.25-3.31v-50.44H387.72z"/>
		<path class="st16" d="M428.8,145.53h11.02v12.75c-2.01,2.63-5.39,3.94-10.14,3.94c-4.33,0-7.72-1.94-10.16-5.83
			c-1.54-2.46-2.59-5.56-3.16-9.28c-2.88,1.41-5.77,2.77-8.68,4.07c0.46,2.03,1.05,3.95,1.78,5.75c1.87,4.61,4.54,8.15,7.99,10.63
			c3.45,2.48,7.42,3.71,11.9,3.71c4.36,0,8.25-0.79,11.68-2.37c3.43-1.58,6.11-3.91,8.04-6.98v-24.97h-13.29
			c-2.32,1.28-4.65,2.54-6.98,3.79V145.53z"/>
		<path class="st17" d="M415.88,140v-5.01c0.07-7.06,1.19-12.42,3.36-16.07c2.17-3.65,5.33-5.48,9.49-5.48
			c6.44,0,10.17,3.92,11.2,11.77h9.11c-0.71-6.74-2.82-11.91-6.32-15.5c-3.5-3.59-8.23-5.39-14.18-5.39c-6.93,0-12.33,2.77-16.2,8.3
			c-3.87,5.53-5.8,13.22-5.8,23.06v5.1c0.05,3.75,0.43,7.21,1.14,10.38c2.91-1.3,5.8-2.66,8.68-4.07
			C416.04,144.94,415.88,142.58,415.88,140z"/>
		<path class="st17" d="M428.8,140.73c2.34-1.25,4.66-2.51,6.98-3.79h-6.98V140.73z"/>
		<path class="st16" d="M459.54,170.36h9.25v-52c-3.07,1.69-6.16,3.43-9.25,5.18V170.36z"/>
		<path class="st17" d="M459.54,105.22v18.32c3.1-1.75,6.18-3.48,9.25-5.18v-13.14H459.54z"/>
		<path class="st17" d="M475.06,114.34h1.13c6.22-3.31,12.4-6.4,18.55-9.13h-19.68V114.34z"/>
		<path class="st16" d="M491.59,114.34v56.02h9.22v-56.02h16.67v-9.13h-22.74c-6.14,2.73-12.32,5.82-18.55,9.13H491.59z"/>
		<path class="st16" d="M555.25,108.15c-3.37-2.55-7.23-3.83-11.59-3.83s-8.22,1.29-11.59,3.87c-3.37,2.58-5.97,6.3-7.82,11.16
			s-2.77,10.47-2.77,16.82v3.67c0.02,6.23,0.96,11.74,2.81,16.51c1.85,4.77,4.47,8.45,7.86,11.03c3.39,2.58,7.25,3.87,11.59,3.87
			c4.38,0,8.26-1.29,11.62-3.87s5.96-6.28,7.77-11.1c1.81-4.82,2.72-10.42,2.72-16.8v-3.62c-0.02-6.35-0.96-11.92-2.79-16.71
			C561.21,114.37,558.61,110.7,555.25,108.15z M556.55,139.49c0,7.34-1.11,12.92-3.32,16.73c-2.22,3.82-5.38,5.73-9.49,5.73
			c-4.06,0-7.24-1.95-9.53-5.86c-2.29-3.91-3.43-9.44-3.43-16.6v-3.76c0.05-7.01,1.21-12.43,3.47-16.26
			c2.26-3.83,5.4-5.75,9.42-5.75c4.11,0,7.29,1.92,9.53,5.77c2.24,3.85,3.36,9.38,3.36,16.6V139.49z"/>
		<path class="st17" d="M600.12,116.24c1.42,1.56,2.26,3.62,2.52,6.16c0.56,0.6,1.11,1.21,1.66,1.83h7.7c0-3.76-0.83-7.18-2.5-10.27
			c-1.67-3.09-3.95-5.47-6.87-7.14c-2.91-1.67-6.23-2.51-9.95-2.51c-3.44,0-6.47,0.65-9.12,1.92c3.41,2.18,6.62,4.58,9.65,7.14
			C596.17,113.5,598.48,114.44,600.12,116.24z"/>
		<path class="st16" d="M604.73,138.12c-2.52-1.92-5.86-3.64-10.03-5.15c-4.16-1.51-7.15-3.06-8.96-4.65
			c-1.81-1.6-2.72-3.59-2.72-5.97c0-2.83,0.84-5.04,2.52-6.62c1.68-1.58,4.03-2.37,7.07-2.37c0.21,0,0.4,0.02,0.6,0.02
			c-3.04-2.56-6.25-4.96-9.65-7.14c-1.67,0.81-3.2,1.86-4.56,3.18c-3.51,3.4-5.27,7.73-5.27,12.98c0,6,2.44,10.86,7.31,14.59
			c2.55,1.94,5.97,3.7,10.28,5.28c4.31,1.58,7.29,3.15,8.94,4.7c1.65,1.55,2.48,3.76,2.48,6.62c0,2.63-0.81,4.74-2.44,6.33
			c-1.63,1.6-4.06,2.39-7.29,2.39c-3.75,0-6.62-1.01-8.63-3.04s-3.01-4.89-3.01-8.59h-9.29c0,4.09,0.9,7.67,2.7,10.74
			c1.8,3.07,4.32,5.48,7.57,7.23c3.24,1.75,6.8,2.62,10.67,2.62c5.85,0,10.48-1.6,13.9-4.81c3.42-3.21,5.12-7.52,5.12-12.95
			c0-3.34-0.59-6.26-1.76-8.75C609.1,142.25,607.25,140.05,604.73,138.12z"/>
		<path class="st16" d="M602.74,124.23h1.55c-0.54-0.61-1.1-1.22-1.66-1.83C602.7,122.99,602.74,123.59,602.74,124.23z"/>
	</g>
</g>
</svg>
