<?xml version="1.0" encoding="utf-8"?>
<!-- Generator: Adobe Illustrator 24.0.0, SVG Export Plug-In . SVG Version: 6.00 Build 0)  -->
<svg version="1.1" id="Layer_1" xmlns="http://www.w3.org/2000/svg" xmlns:xlink="http://www.w3.org/1999/xlink" x="0px" y="0px"
	 viewBox="0 0 720 720" style="enable-background:new 0 0 720 720;" xml:space="preserve">
<style type="text/css">
	.st0{fill:url(#SVGID_1_);}
	.st1{fill:url(#SVGID_2_);}
	.st2{fill:url(#SVGID_3_);}
	.st3{fill:url(#SVGID_4_);}
	.st4{fill:url(#SVGID_5_);}
	.st5{fill:url(#SVGID_6_);}
	.st6{fill:url(#SVGID_7_);}
	.st7{fill:url(#SVGID_8_);}
</style>
<g>
	<linearGradient id="SVGID_1_" gradientUnits="userSpaceOnUse" x1="114.7827" y1="540.1199" x2="190.1248" y2="540.1199">
		<stop  offset="0" style="stop-color:#1991F7"/>
		<stop  offset="0.3313" style="stop-color:#1282EE"/>
		<stop  offset="0.97" style="stop-color:#015AD5"/>
		<stop  offset="0.9944" style="stop-color:#0058D4"/>
	</linearGradient>
	<path class="st0" d="M114.78,475.16V601.3c0,11.36,9.29,20.65,20.65,20.65h54.69V458.28c-18.87,0.55-37.61,3.78-56.17,9.7
		C127.23,470.13,120.84,472.56,114.78,475.16z"/>
	<linearGradient id="SVGID_2_" gradientUnits="userSpaceOnUse" x1="114.7827" y1="331.1216" x2="190.1248" y2="331.1216">
		<stop  offset="0" style="stop-color:#1991F7"/>
		<stop  offset="0.3313" style="stop-color:#1282EE"/>
		<stop  offset="0.97" style="stop-color:#015AD5"/>
		<stop  offset="0.9944" style="stop-color:#0058D4"/>
	</linearGradient>
	<path class="st1" d="M190.12,430.41V218.14c-25.36-2.41-50.5-0.03-75.34,7.16v219.71c3.05-1.14,6.16-2.24,9.35-3.28
		C145.75,434.7,167.82,430.94,190.12,430.41z"/>
	<linearGradient id="SVGID_3_" gradientUnits="userSpaceOnUse" x1="114.7827" y1="121.0933" x2="439.4783" y2="121.0933">
		<stop  offset="0" style="stop-color:#1991F7"/>
		<stop  offset="0.3313" style="stop-color:#1282EE"/>
		<stop  offset="0.97" style="stop-color:#015AD5"/>
		<stop  offset="0.9944" style="stop-color:#0058D4"/>
	</linearGradient>
	<path class="st2" d="M190.12,190.19V88.59c0-11.18,9.06-20.24,20.24-20.24h229.11v-1.83c0-11.36-9.29-20.65-20.65-20.65H135.43
		c-11.36,0-20.65,9.29-20.65,20.65v129.8C139.48,190.1,164.7,188.04,190.12,190.19z"/>
	<linearGradient id="SVGID_4_" gradientUnits="userSpaceOnUse" x1="190.1248" y1="206.0077" x2="214.1247" y2="206.0077">
		<stop  offset="0" style="stop-color:#1991F7"/>
		<stop  offset="0.3313" style="stop-color:#1282EE"/>
		<stop  offset="0.97" style="stop-color:#015AD5"/>
		<stop  offset="0.9944" style="stop-color:#0058D4"/>
	</linearGradient>
	<path class="st3" d="M214.12,221.83v-28.37c-0.71-0.13-1.42-0.27-2.13-0.4c-7.3-1.3-14.6-2.26-21.87-2.87v27.95
		C198.1,218.9,206.1,220.12,214.12,221.83z"/>
	<linearGradient id="SVGID_5_" gradientUnits="userSpaceOnUse" x1="190.1248" y1="444.6883" x2="214.1247" y2="444.6883">
		<stop  offset="0" style="stop-color:#1991F7"/>
		<stop  offset="0.3313" style="stop-color:#1282EE"/>
		<stop  offset="0.97" style="stop-color:#015AD5"/>
		<stop  offset="0.9944" style="stop-color:#0058D4"/>
	</linearGradient>
	<path class="st4" d="M190.12,430.41v27.87c7.98-0.23,15.98,0.01,24,0.74V431.1C206.1,430.45,198.1,430.23,190.12,430.41z"/>
	<linearGradient id="SVGID_6_" gradientUnits="userSpaceOnUse" x1="214.1247" y1="566.5781" x2="605.2173" y2="566.5781">
		<stop  offset="0" style="stop-color:#1991F7"/>
		<stop  offset="0.3313" style="stop-color:#1282EE"/>
		<stop  offset="0.97" style="stop-color:#015AD5"/>
		<stop  offset="0.9944" style="stop-color:#0058D4"/>
	</linearGradient>
	<path class="st5" d="M552.78,601.65c-17.94,0-36.2-2.2-54.67-6.6c-45.04-10.73-91.32-34.66-137.56-71.14
		c-49.23-38.84-98.23-60.52-146.44-64.89v162.93v34.45c0,9.75,7.97,17.72,17.72,17.72H587.5c9.75,0,17.72-7.97,17.72-17.72v-61.29
		c-0.17,0.04-0.33,0.09-0.49,0.13C587.81,599.52,570.46,601.65,552.78,601.65z"/>
	<linearGradient id="SVGID_7_" gradientUnits="userSpaceOnUse" x1="214.1247" y1="397.7929" x2="605.2173" y2="397.7929">
		<stop  offset="0" style="stop-color:#1991F7"/>
		<stop  offset="0.3313" style="stop-color:#1282EE"/>
		<stop  offset="0.97" style="stop-color:#015AD5"/>
		<stop  offset="0.9944" style="stop-color:#0058D4"/>
	</linearGradient>
	<path class="st6" d="M527.95,360.69c-17.94,0-36.2-2.2-54.67-6.6c-45.04-10.73-91.32-34.66-137.56-71.14
		c-40.8-32.19-81.44-52.59-121.6-61.12V431.1c7.56,0.61,15.13,1.58,22.71,2.93c47.15,8.41,94.61,31.26,141.06,67.91
		c76.99,60.73,150.52,83.12,218.56,66.52c3-0.73,5.91-1.53,8.76-2.38V346.14c-7.81,3.07-16.26,5.85-25.33,8.14
		C562.97,358.55,545.62,360.69,527.95,360.69z"/>
	<linearGradient id="SVGID_8_" gradientUnits="userSpaceOnUse" x1="214.1247" y1="211.0687" x2="605.2173" y2="211.0687">
		<stop  offset="0" style="stop-color:#1991F7"/>
		<stop  offset="0.3313" style="stop-color:#1282EE"/>
		<stop  offset="0.97" style="stop-color:#015AD5"/>
		<stop  offset="0.9944" style="stop-color:#0058D4"/>
	</linearGradient>
	<path class="st7" d="M571.62,327.48c12.57-3.07,23.81-7.26,33.6-11.84V107.07c0-9.75-7.97-17.72-17.72-17.72H383.48H231.84
		c-9.75,0-17.72,7.97-17.72,17.72v86.39c46.45,8.71,93.18,31.41,138.94,67.51C430.05,321.7,503.59,344.08,571.62,327.48z"/>
</g>
</svg>
