<?xml version="1.0" encoding="utf-8"?>
<!-- Generator: Adobe Illustrator 24.0.0, SVG Export Plug-In . SVG Version: 6.00 Build 0)  -->
<svg version="1.1" id="Layer_1" xmlns="http://www.w3.org/2000/svg" xmlns:xlink="http://www.w3.org/1999/xlink" x="0px" y="0px"
	 viewBox="0 0 720 720" style="enable-background:new 0 0 720 720;" xml:space="preserve">
<style type="text/css">
	.st0{fill:#FFFFFF;}
</style>
<g>
	<path class="st0" d="M114.8,475.2v126.1c0,11.4,9.3,20.7,20.6,20.7h54.7V458.3c-18.9,0.5-37.6,3.8-56.2,9.7
		C127.2,470.1,120.8,472.6,114.8,475.2z"/>
	<path class="st0" d="M190.1,430.4V218.1c-25.4-2.4-50.5,0-75.3,7.2V445c3.1-1.1,6.2-2.2,9.3-3.3
		C145.8,434.7,167.8,430.9,190.1,430.4z"/>
	<path class="st0" d="M190.1,190.2V88.6c0-11.2,9.1-20.2,20.2-20.2h229.1v-1.8c0-11.4-9.3-20.7-20.6-20.7H135.4
		c-11.4,0-20.7,9.3-20.7,20.7v129.8C139.5,190.1,164.7,188,190.1,190.2z"/>
	<path class="st0" d="M214.1,221.8v-28.4c-0.7-0.1-1.4-0.3-2.1-0.4c-7.3-1.3-14.6-2.3-21.9-2.9v27.9
		C198.1,218.9,206.1,220.1,214.1,221.8z"/>
	<path class="st0" d="M190.1,430.4v27.9c8-0.2,16,0,24,0.7v-27.9C206.1,430.5,198.1,430.2,190.1,430.4z"/>
	<path class="st0" d="M552.8,601.7c-17.9,0-36.2-2.2-54.7-6.6c-45-10.7-91.3-34.7-137.6-71.1c-49.2-38.8-98.2-60.5-146.4-64.9V622
		v34.5c0,9.8,8,17.7,17.7,17.7h355.7c9.8,0,17.7-8,17.7-17.7v-61.3c-0.2,0-0.3,0.1-0.5,0.1C587.8,599.5,570.5,601.7,552.8,601.7z"/>
	<path class="st0" d="M528,360.7c-17.9,0-36.2-2.2-54.7-6.6c-45-10.7-91.3-34.7-137.6-71.1c-40.8-32.2-81.4-52.6-121.6-61.1v209.3
		c7.6,0.6,15.1,1.6,22.7,2.9c47.1,8.4,94.6,31.3,141.1,67.9c77,60.7,150.5,83.1,218.6,66.5c3-0.7,5.9-1.5,8.8-2.4V346.1
		c-7.8,3.1-16.3,5.9-25.3,8.1C563,358.5,545.6,360.7,528,360.7z"/>
	<path class="st0" d="M571.6,327.5c12.6-3.1,23.8-7.3,33.6-11.8V107.1c0-9.8-8-17.7-17.7-17.7h-204H231.8c-9.8,0-17.7,8-17.7,17.7
		v86.4c46.5,8.7,93.2,31.4,138.9,67.5C430,321.7,503.6,344.1,571.6,327.5z"/>
</g>
</svg>
