<?xml version="1.0" encoding="utf-8"?>
<!-- Generator: Adobe Illustrator 24.0.0, SVG Export Plug-In . SVG Version: 6.00 Build 0)  -->
<svg version="1.1" id="Layer_1" xmlns="http://www.w3.org/2000/svg" xmlns:xlink="http://www.w3.org/1999/xlink" x="0px" y="0px"
	 viewBox="0 0 2000 693.48" style="enable-background:new 0 0 2000 693.48;" xml:space="preserve">
<style type="text/css">
	.st0{fill:#0055B2;}
	.st1{fill:url(#SVGID_1_);}
	.st2{fill:url(#SVGID_2_);}
	.st3{fill:url(#SVGID_3_);}
	.st4{fill:url(#SVGID_4_);}
	.st5{fill:url(#SVGID_5_);}
	.st6{fill:url(#SVGID_6_);}
	.st7{fill:url(#SVGID_7_);}
	.st8{fill:url(#SVGID_8_);}
</style>
<g>
	<g>
		<path class="st0" d="M763,474.86c-19.51,0-36.65-2.9-51.41-8.7c-14.77-5.8-29-15.03-42.71-27.68c-1.85-1.58-3.36-3.56-4.55-5.93
			c-1.19-2.37-1.78-4.88-1.78-7.51c0-4.21,1.51-7.97,4.55-11.27c3.03-3.29,6.78-4.94,11.27-4.94c3.69,0,6.98,1.45,9.89,4.35
			c10.28,10.02,21.42,17.67,33.42,22.94c11.99,5.28,25.51,7.91,40.53,7.91c11.6,0,22.01-1.84,31.24-5.54
			c9.23-3.69,16.61-8.83,22.15-15.42c5.54-6.59,8.3-14.24,8.3-22.94c0-10.54-2.97-19.24-8.9-26.1c-5.93-6.85-14.11-12.52-24.52-17
			c-10.42-4.48-22.48-8.43-36.18-11.86c-12.13-2.9-23.27-6.39-33.42-10.48c-10.15-4.08-18.98-9.23-26.5-15.42
			c-7.51-6.19-13.32-13.7-17.4-22.54c-4.09-8.83-6.13-19.31-6.13-31.44c0-15.03,3.95-28.14,11.86-39.35
			c7.91-11.2,18.91-19.97,33.02-26.3c14.1-6.33,30.25-9.49,48.44-9.49c16.08,0,31.3,2.64,45.67,7.91
			c14.37,5.28,25.9,12.52,34.6,21.75c5.27,5.01,7.91,10.02,7.91,15.03c0,3.69-1.65,7.19-4.94,10.48c-3.3,3.3-7.06,4.94-11.27,4.94
			c-2.9,0-5.54-0.92-7.91-2.77c-4.49-5-10.22-9.49-17.2-13.45c-6.99-3.95-14.5-7.12-22.54-9.49c-8.04-2.37-16.15-3.56-24.32-3.56
			c-12.13,0-22.81,1.78-32.03,5.34c-9.23,3.56-16.41,8.5-21.55,14.83c-5.14,6.33-7.71,13.98-7.71,22.94c0,10.02,2.9,18.26,8.7,24.72
			c5.8,6.46,13.57,11.73,23.33,15.82c9.75,4.09,20.56,7.71,32.43,10.88c12.91,3.16,24.85,6.79,35.79,10.87
			c10.94,4.09,20.37,9.16,28.27,15.22c7.91,6.07,14.04,13.78,18.39,23.13c4.35,9.36,6.52,20.9,6.52,34.6
			c0,14.5-4.09,27.42-12.26,38.75c-8.17,11.34-19.31,20.3-33.42,26.89C796.54,471.56,780.66,474.86,763,474.86z"/>
		<path class="st0" d="M918.01,236.8c-6.59,0-11.47-1.32-14.63-3.95c-3.16-2.63-4.75-6.72-4.75-12.26v-5.54
			c0-5.54,1.71-9.62,5.14-12.26c3.42-2.63,8.3-3.95,14.63-3.95s11.07,1.32,14.24,3.95c3.16,2.64,4.75,6.72,4.75,12.26v5.54
			c0,5.54-1.65,9.63-4.94,12.26C929.15,235.49,924.34,236.8,918.01,236.8z M934.22,454.7c0,4.49-1.52,8.3-4.55,11.47
			c-3.03,3.16-6.79,4.75-11.27,4.75c-4.75,0-8.64-1.58-11.67-4.75c-3.03-3.16-4.55-6.98-4.55-11.47V279.51
			c0-4.48,1.51-8.3,4.55-11.47c3.03-3.16,6.92-4.75,11.67-4.75c4.48,0,8.24,1.58,11.27,4.75c3.03,3.16,4.55,6.99,4.55,11.47V454.7z"
			/>
		<path class="st0" d="M1075,261.32c11.33,0,21.88,1.92,31.64,5.73c9.75,3.82,18.25,8.77,25.51,14.83c7.25,6.07,12.91,12.4,17,18.98
			c4.08,6.59,6.13,12.79,6.13,18.59l-7.51-4.75v-34.4c0-4.48,1.45-8.24,4.35-11.27c2.9-3.03,6.72-4.55,11.47-4.55
			c4.75,0,8.56,1.52,11.47,4.55c2.9,3.03,4.35,6.79,4.35,11.27v173.21c0,21.61-4.55,39.61-13.64,53.98
			c-9.1,14.37-21.29,25.04-36.58,32.03c-15.29,6.98-32.3,10.48-51.01,10.48c-7.91,0-16.68-0.99-26.3-2.97
			c-9.63-1.98-18.13-4.49-25.51-7.51c-7.38-3.03-12-6.13-13.84-9.29c-3.95-2.9-6.46-5.93-7.51-9.1c-1.06-3.16-0.53-6.33,1.58-9.49
			c2.37-3.69,5.47-5.54,9.29-5.54c3.82,0,8.63,1.19,14.43,3.56c2.37,0.79,6.13,2.11,11.27,3.95c5.14,1.84,11,3.49,17.6,4.94
			c6.59,1.45,13.05,2.17,19.38,2.17c22.15,0,39.21-5.87,51.21-17.6c11.99-11.73,17.99-27.22,17.99-46.47V419.9l4.35,1.98
			c-1.58,7.38-4.81,14.24-9.69,20.56c-4.88,6.33-10.74,11.93-17.6,16.81c-6.86,4.88-14.57,8.7-23.13,11.47
			c-8.57,2.77-17.2,4.15-25.9,4.15c-18.46,0-35.06-4.61-49.83-13.84c-14.77-9.23-26.43-21.88-35-37.96
			c-8.57-16.08-12.85-34.4-12.85-54.97c0-20.82,4.28-39.28,12.85-55.36c8.56-16.08,20.17-28.67,34.8-37.77
			C1040.4,265.87,1056.81,261.32,1075,261.32z M1079.35,290.58c-13.71,0-25.84,3.36-36.38,10.08
			c-10.55,6.72-18.85,15.95-24.91,27.68c-6.07,11.73-9.09,24.98-9.09,39.74c0,14.5,3.03,27.62,9.09,39.35
			c6.06,11.73,14.37,21.03,24.91,27.88c10.54,6.86,22.67,10.28,36.38,10.28c13.45,0,25.44-3.36,35.99-10.08
			c10.54-6.72,18.85-15.88,24.91-27.48c6.06-11.6,9.1-24.91,9.1-39.94s-3.03-28.4-9.1-40.14c-6.07-11.73-14.37-20.89-24.91-27.48
			C1104.79,293.88,1092.8,290.58,1079.35,290.58z"/>
		<path class="st0" d="M1404.41,264.49c4.75,0,8.56,1.52,11.47,4.55c2.9,3.03,4.35,6.79,4.35,11.27V454.7
			c0,4.49-1.52,8.3-4.55,11.47c-3.03,3.16-6.79,4.75-11.27,4.75c-4.75,0-8.57-1.58-11.47-4.75c-2.9-3.16-4.35-6.98-4.35-11.47
			v-37.57l7.51-0.79c0,6.07-1.98,12.46-5.93,19.18s-9.36,13.05-16.21,18.98c-6.86,5.93-14.96,10.81-24.32,14.63
			c-9.36,3.82-19.31,5.73-29.86,5.73c-18.19,0-34.4-4.68-48.64-14.04c-14.24-9.35-25.51-22.08-33.81-38.16
			c-8.3-16.08-12.46-34.4-12.46-54.97c0-20.82,4.15-39.21,12.46-55.16c8.3-15.95,19.57-28.47,33.81-37.57
			c14.24-9.1,30.05-13.64,47.45-13.64c11.33,0,21.88,1.85,31.64,5.54c9.75,3.69,18.25,8.7,25.51,15.03
			c7.25,6.33,12.91,13.32,17,20.96c4.08,7.65,6.13,15.29,6.13,22.94l-10.28-2.37v-43.1c0-4.48,1.45-8.24,4.35-11.27
			C1395.83,266.01,1399.66,264.49,1404.41,264.49z M1322.94,445.6c13.18,0,24.85-3.42,35-10.28c10.14-6.85,18.05-16.15,23.73-27.88
			c5.67-11.73,8.5-24.98,8.5-39.74c0-14.5-2.84-27.55-8.5-39.15c-5.67-11.6-13.58-20.82-23.73-27.68
			c-10.15-6.85-21.82-10.28-35-10.28c-12.92,0-24.46,3.36-34.6,10.08c-10.15,6.72-18.13,15.89-23.92,27.48
			c-5.8,11.6-8.7,24.78-8.7,39.54c0,14.77,2.9,28.02,8.7,39.74c5.8,11.73,13.77,21.03,23.92,27.88
			C1298.49,442.18,1310.02,445.6,1322.94,445.6z"/>
		<path class="st0" d="M1494.56,470.91c-4.49,0-8.24-1.58-11.27-4.75c-3.03-3.16-4.55-6.98-4.55-11.47V282.68
			c0-4.75,1.51-8.63,4.55-11.67c3.03-3.03,6.78-4.55,11.27-4.55c4.75,0,8.56,1.52,11.47,4.55c2.9,3.03,4.35,6.92,4.35,11.67v51.8
			l-4.75-8.3c1.58-8.17,4.41-16.15,8.5-23.92c4.08-7.77,9.29-14.76,15.62-20.96c6.33-6.19,13.58-11.07,21.75-14.63
			c8.17-3.56,17.13-5.34,26.89-5.34c5.8,0,11.13,1.38,16.02,4.15c4.88,2.77,7.32,6.66,7.32,11.67c0,5.54-1.45,9.69-4.35,12.46
			c-2.9,2.77-6.2,4.15-9.89,4.15c-3.43,0-6.72-0.79-9.89-2.37c-3.16-1.58-7.12-2.37-11.86-2.37c-6.59,0-13.12,1.85-19.58,5.54
			c-6.46,3.69-12.39,8.77-17.79,15.22c-5.41,6.46-9.76,13.84-13.05,22.15c-3.3,8.3-4.94,17.2-4.94,26.69v96.09
			c0,4.49-1.52,8.3-4.55,11.47C1502.8,469.33,1499.04,470.91,1494.56,470.91z"/>
		<path class="st0" d="M1892.38,332.5c0,20.3-3.3,39.09-9.89,56.35c-6.59,17.27-15.89,32.36-27.88,45.28
			c-12,12.92-26.1,22.94-42.31,30.05c-16.21,7.12-34.08,10.68-53.58,10.68c-19.25,0-36.97-3.56-53.19-10.68
			c-16.21-7.12-30.32-17.13-42.31-30.05c-12-12.91-21.22-28.01-27.68-45.28c-6.46-17.26-9.69-36.05-9.69-56.35
			c0-20.3,3.23-39.08,9.69-56.35c6.46-17.26,15.68-32.36,27.68-45.28c11.99-12.91,26.1-22.94,42.31-30.05
			c16.21-7.12,33.94-10.68,53.19-10.68c19.51,0,37.37,3.56,53.58,10.68c16.21,7.12,30.31,17.14,42.31,30.05
			c11.99,12.92,21.29,28.02,27.88,45.28C1889.08,293.42,1892.38,312.21,1892.38,332.5z M1857.97,332.5
			c0-21.35-4.22-40.4-12.65-57.14c-8.44-16.74-20.11-29.86-35-39.35c-14.9-9.49-32.1-14.24-51.61-14.24
			c-19.25,0-36.32,4.75-51.21,14.24c-14.9,9.49-26.56,22.54-35,39.15c-8.44,16.61-12.65,35.73-12.65,57.34
			c0,21.35,4.21,40.4,12.65,57.14c8.43,16.75,20.1,29.86,35,39.35c14.89,9.49,31.96,14.24,51.21,14.24
			c19.51,0,36.71-4.75,51.61-14.24c14.89-9.49,26.56-22.6,35-39.35C1853.75,372.91,1857.97,353.86,1857.97,332.5z M1905.03,489.1
			c3.95,0,7.38,1.45,10.28,4.35c2.9,2.9,4.35,6.46,4.35,10.68c0,5-2.44,9.82-7.32,14.43c-4.88,4.61-11.21,8.83-18.98,12.65
			c-7.78,3.82-15.95,6.78-24.52,8.9c-8.57,2.11-16.55,3.16-23.92,3.16c-15.82,0-28.87-1.65-39.15-4.94
			c-10.28-3.3-19.12-7.06-26.5-11.27c-7.38-4.22-14.7-7.98-21.95-11.27c-7.25-3.3-15.89-4.94-25.9-4.94
			c-5.01,0-9.23,0.79-12.65,2.37c-3.43,1.58-6.72,3.16-9.89,4.75c-3.16,1.58-6.86,2.37-11.07,2.37c-4.49,0-8.24-1.65-11.27-4.94
			c-3.03-3.3-4.55-7.06-4.55-11.27c0-6.86,3.03-11.47,9.1-13.84l72.76-26.1l35.99,3.56l-67.62,23.73l11.47-8.3
			c10.28,0,19.51,1.58,27.68,4.75c8.17,3.16,15.95,6.72,23.33,10.68c7.38,3.95,15.16,7.51,23.33,10.68
			c8.17,3.16,17.66,4.75,28.47,4.75c9.22,0,16.87-1.38,22.94-4.15c6.06-2.77,11.07-5.47,15.03-8.11c4.21-2.9,7.84-5.73,10.88-8.5
			C1898.37,490.48,1901.6,489.1,1905.03,489.1z"/>
	</g>
</g>
<g>
	<linearGradient id="SVGID_1_" gradientUnits="userSpaceOnUse" x1="96.4348" y1="526.8589" x2="171.777" y2="526.8589">
		<stop  offset="0" style="stop-color:#1991F7"/>
		<stop  offset="0.3313" style="stop-color:#1282EE"/>
		<stop  offset="0.97" style="stop-color:#015AD5"/>
		<stop  offset="0.9944" style="stop-color:#0058D4"/>
	</linearGradient>
	<path class="st1" d="M96.43,461.9v126.15c0,11.36,9.29,20.65,20.65,20.65h54.69V445.02c-18.87,0.55-37.61,3.78-56.17,9.7
		C108.88,456.87,102.49,459.3,96.43,461.9z"/>
	<linearGradient id="SVGID_2_" gradientUnits="userSpaceOnUse" x1="96.4348" y1="317.8608" x2="171.777" y2="317.8608">
		<stop  offset="0" style="stop-color:#1991F7"/>
		<stop  offset="0.3313" style="stop-color:#1282EE"/>
		<stop  offset="0.97" style="stop-color:#015AD5"/>
		<stop  offset="0.9944" style="stop-color:#0058D4"/>
	</linearGradient>
	<path class="st2" d="M171.78,417.15V204.88c-25.36-2.41-50.5-0.03-75.34,7.16v219.71c3.05-1.14,6.16-2.24,9.35-3.28
		C127.4,421.43,149.47,417.67,171.78,417.15z"/>
	<linearGradient id="SVGID_3_" gradientUnits="userSpaceOnUse" x1="96.4348" y1="107.8324" x2="421.1305" y2="107.8324">
		<stop  offset="0" style="stop-color:#1991F7"/>
		<stop  offset="0.3313" style="stop-color:#1282EE"/>
		<stop  offset="0.97" style="stop-color:#015AD5"/>
		<stop  offset="0.9944" style="stop-color:#0058D4"/>
	</linearGradient>
	<path class="st3" d="M171.78,176.93V75.33c0-11.18,9.06-20.24,20.24-20.24h229.11v-1.83c0-11.36-9.29-20.65-20.65-20.65H117.09
		c-11.36,0-20.65,9.29-20.65,20.65v129.8C121.14,176.84,146.35,174.78,171.78,176.93z"/>
	<linearGradient id="SVGID_4_" gradientUnits="userSpaceOnUse" x1="171.777" y1="192.7468" x2="195.7768" y2="192.7468">
		<stop  offset="0" style="stop-color:#1991F7"/>
		<stop  offset="0.3313" style="stop-color:#1282EE"/>
		<stop  offset="0.97" style="stop-color:#015AD5"/>
		<stop  offset="0.9944" style="stop-color:#0058D4"/>
	</linearGradient>
	<path class="st4" d="M195.78,208.57V180.2c-0.71-0.13-1.42-0.27-2.13-0.4c-7.3-1.3-14.6-2.26-21.87-2.87v27.95
		C179.76,205.64,187.76,206.86,195.78,208.57z"/>
	<linearGradient id="SVGID_5_" gradientUnits="userSpaceOnUse" x1="171.777" y1="431.4274" x2="195.7768" y2="431.4274">
		<stop  offset="0" style="stop-color:#1991F7"/>
		<stop  offset="0.3313" style="stop-color:#1282EE"/>
		<stop  offset="0.97" style="stop-color:#015AD5"/>
		<stop  offset="0.9944" style="stop-color:#0058D4"/>
	</linearGradient>
	<path class="st5" d="M171.78,417.15v27.87c7.98-0.23,15.98,0.01,24,0.74v-27.93C187.75,417.19,179.75,416.97,171.78,417.15z"/>
	<linearGradient id="SVGID_6_" gradientUnits="userSpaceOnUse" x1="195.7768" y1="553.3172" x2="586.8695" y2="553.3172">
		<stop  offset="0" style="stop-color:#1991F7"/>
		<stop  offset="0.3313" style="stop-color:#1282EE"/>
		<stop  offset="0.97" style="stop-color:#015AD5"/>
		<stop  offset="0.9944" style="stop-color:#0058D4"/>
	</linearGradient>
	<path class="st6" d="M534.44,588.39c-17.94,0-36.2-2.2-54.67-6.6c-45.04-10.73-91.32-34.66-137.56-71.14
		c-49.23-38.84-98.23-60.52-146.44-64.89V608.7v34.45c0,9.75,7.97,17.72,17.72,17.72h355.65c9.75,0,17.72-7.97,17.72-17.72v-61.29
		c-0.17,0.04-0.33,0.09-0.49,0.13C569.46,586.26,552.11,588.39,534.44,588.39z"/>
	<linearGradient id="SVGID_7_" gradientUnits="userSpaceOnUse" x1="195.7768" y1="384.532" x2="586.8695" y2="384.532">
		<stop  offset="0" style="stop-color:#1991F7"/>
		<stop  offset="0.3313" style="stop-color:#1282EE"/>
		<stop  offset="0.97" style="stop-color:#015AD5"/>
		<stop  offset="0.9944" style="stop-color:#0058D4"/>
	</linearGradient>
	<path class="st7" d="M509.6,347.42c-17.94,0-36.2-2.2-54.67-6.6c-45.04-10.73-91.32-34.66-137.56-71.14
		c-40.8-32.19-81.44-52.59-121.6-61.12v209.27c7.56,0.61,15.13,1.58,22.71,2.93c47.15,8.41,94.61,31.26,141.06,67.91
		c76.99,60.73,150.52,83.12,218.56,66.52c3-0.73,5.91-1.53,8.76-2.38V332.88c-7.81,3.07-16.26,5.85-25.33,8.14
		C544.62,345.29,527.27,347.42,509.6,347.42z"/>
	<linearGradient id="SVGID_8_" gradientUnits="userSpaceOnUse" x1="195.7768" y1="197.8078" x2="586.8695" y2="197.8078">
		<stop  offset="0" style="stop-color:#1991F7"/>
		<stop  offset="0.3313" style="stop-color:#1282EE"/>
		<stop  offset="0.97" style="stop-color:#015AD5"/>
		<stop  offset="0.9944" style="stop-color:#0058D4"/>
	</linearGradient>
	<path class="st8" d="M553.27,314.22c12.57-3.07,23.81-7.26,33.6-11.84V93.81c0-9.75-7.97-17.72-17.72-17.72H365.13H213.5
		c-9.75,0-17.72,7.97-17.72,17.72v86.39c46.45,8.71,93.18,31.41,138.94,67.51C411.7,308.44,485.24,330.82,553.27,314.22z"/>
</g>
</svg>
