<?xml version="1.0" standalone="no"?>
<!DOCTYPE svg PUBLIC "-//W3C//DTD SVG 20010904//EN"
 "http://www.w3.org/TR/2001/REC-SVG-20010904/DTD/svg10.dtd">
<svg version="1.0" xmlns="http://www.w3.org/2000/svg"
 width="300.000000pt" height="150.000000pt" viewBox="0 0 300.000000 150.000000"
 preserveAspectRatio="xMidYMid meet">
<metadata>
Created by potrace 1.16, written by Peter Selinger 2001-2019
</metadata>
<g transform="translate(0.000000,150.000000) scale(0.088757,-0.037500)"
fill="#000000" stroke="none">
<path d="M1613 3851 c-13 -11 -23 -28 -23 -39 0 -11 -8 -37 -17 -58 l-17 -39
-7 50 c-6 34 -4 54 4 64 8 9 2 8 -16 -4 -23 -15 -28 -24 -23 -46 3 -17 0 -32
-9 -39 -8 -7 -15 -23 -15 -37 0 -15 -4 -22 -11 -17 -6 3 -8 17 -4 31 4 18 2
23 -6 17 -8 -4 -9 -3 -5 5 4 6 2 18 -4 26 -6 8 -9 19 -5 25 9 15 -11 12 -23
-3 -11 -12 0 -62 20 -92 11 -17 -5 -32 -32 -31 -23 1 -25 -2 -22 -36 1 -20 -2
-39 -7 -42 -15 -10 -52 35 -46 55 3 9 -2 24 -11 33 -11 12 -14 25 -9 43 l6 27
-20 -25 c-19 -23 -19 -25 -1 -44 10 -11 21 -41 25 -67 4 -26 13 -53 21 -59 8
-6 14 -22 14 -35 l0 -23 23 22 c14 14 18 23 10 25 -17 4 -17 39 -1 44 7 3 19
-1 26 -9 17 -17 24 -16 48 3 16 13 16 15 2 10 -14 -4 -18 0 -18 19 0 25 12 28
52 11 9 -4 25 -3 35 4 16 10 16 10 -4 5 -12 -3 -24 -1 -28 5 -3 5 -2 10 3 10
6 0 13 12 17 27 6 26 8 26 19 10 15 -20 32 -22 39 -4 2 6 8 9 12 5 4 -4 2 -14
-5 -23 -16 -19 -9 -19 40 2 44 19 53 33 17 26 -20 -4 -22 -1 -21 31 1 24 -2
36 -11 36 -18 0 -14 82 4 104 18 21 11 20 -16 -3z"/>
<path d="M2146 3803 c-11 -11 -6 -43 7 -43 8 0 7 -3 -3 -10 -12 -7 -11 -9 5
-9 181 4 592 -100 914 -232 79 -33 146 -57 148 -55 5 5 -70 51 -188 115 -63
33 -103 49 -115 45 -13 -4 -15 -3 -6 3 9 7 3 14 -21 25 -76 36 -247 99 -347
127 -119 33 -106 23 30 -23 69 -23 147 -52 174 -64 27 -12 56 -22 65 -22 9 0
25 -7 36 -16 19 -14 19 -15 -10 -10 -16 3 -83 23 -148 45 -64 22 -154 47 -200
56 -45 9 -112 25 -150 36 -37 11 -72 17 -78 14 -5 -4 -15 -2 -22 3 -15 12 -83
23 -91 15z"/>
<path d="M1248 3665 c-9 -21 -6 -34 21 -88 17 -36 31 -71 31 -80 0 -8 6 -17
13 -20 9 -3 9 -7 -2 -20 -17 -21 -28 -15 -26 14 1 12 -7 31 -17 41 -10 10 -18
27 -18 38 0 10 -10 28 -21 39 -14 13 -19 26 -15 37 5 14 4 15 -9 4 -20 -17
-19 -33 5 -55 25 -23 30 -96 5 -75 -8 7 -15 18 -15 26 0 7 -9 18 -21 24 -16 9
-19 18 -15 36 4 14 2 24 -4 24 -5 0 -10 -6 -10 -14 0 -7 -9 -16 -21 -19 -11
-3 -23 -15 -26 -26 -3 -12 -11 -21 -18 -21 -17 0 -74 -65 -86 -98 -8 -21 -7
-29 8 -40 45 -32 63 -53 63 -72 0 -11 -4 -20 -9 -20 -17 0 -76 65 -73 81 2 10
-2 20 -8 24 -5 3 -10 -2 -10 -14 0 -10 -3 -26 -6 -35 -4 -11 -1 -16 10 -16 9
0 16 -4 16 -8 0 -4 14 -16 31 -26 28 -16 29 -20 16 -33 -14 -14 -18 -13 -38 6
-13 11 -31 21 -40 21 -12 0 -16 6 -12 20 3 11 0 20 -6 20 -23 0 -11 -46 17
-62 15 -9 37 -25 50 -36 19 -17 20 -21 8 -31 -19 -16 -69 9 -93 45 l-17 26 -8
-22 c-5 -13 -7 -24 -6 -25 2 -1 21 -12 43 -25 58 -34 84 -70 50 -70 -22 0 -66
28 -92 59 -23 26 -23 26 -23 3 0 -12 14 -36 33 -53 31 -29 31 -30 7 -24 -25 6
-25 6 4 -18 36 -31 27 -48 -20 -40 -35 6 -36 5 -23 -16 8 -11 17 -21 21 -21 5
0 8 -6 8 -13 0 -8 -13 -12 -37 -11 -33 2 -35 0 -19 -10 10 -6 31 -21 45 -33
22 -19 23 -22 8 -23 -10 0 -28 5 -39 11 -16 9 -24 7 -37 -6 -9 -10 -10 -15 -4
-11 32 18 69 -34 44 -59 -16 -17 21 -51 72 -68 45 -15 47 -15 47 3 0 10 -5 22
-10 25 -15 9 -12 25 5 25 20 0 19 6 -7 33 l-23 22 32 3 c17 2 34 10 37 19 5
12 3 13 -6 6 -9 -6 -21 -6 -37 3 l-23 12 23 8 c13 4 26 8 29 9 18 2 31 22 41
61 6 24 15 44 20 44 5 0 9 9 9 19 0 11 5 23 10 26 14 9 13 -3 -9 -62 -10 -29
-16 -54 -13 -57 2 -3 0 -11 -6 -18 -5 -7 -13 -35 -17 -63 -4 -27 -12 -58 -17
-68 -13 -24 -13 -96 0 -109 7 -7 17 -6 31 1 17 9 20 19 17 53 -5 50 8 88 30
88 11 0 14 5 10 16 -4 10 1 25 11 36 14 16 15 18 1 13 -9 -4 -19 -2 -23 4 -4
7 3 11 18 11 19 0 26 7 31 31 3 19 1 38 -6 46 -9 11 -7 15 10 20 20 5 21 7 6
34 -13 26 -13 29 2 29 10 0 14 -5 11 -15 -9 -23 9 -26 28 -5 10 11 13 20 7 20
-19 0 -1 38 21 44 15 4 18 8 10 14 -14 9 0 38 14 29 5 -3 15 -2 23 4 10 6 11
9 3 9 -7 0 -13 9 -13 20 0 15 7 20 29 20 17 0 33 5 36 10 3 6 -4 10 -16 10
-18 0 -19 2 -9 15 7 9 21 13 31 10 16 -5 18 -2 13 24 -5 24 -3 31 10 31 9 0
16 -7 16 -15 0 -27 20 -16 27 15 5 28 23 43 23 20 0 -19 21 -10 30 13 5 12 9
18 9 13 2 -17 31 17 31 35 0 24 16 25 29 2 8 -16 11 -15 20 10 6 16 16 25 21
22 6 -4 7 -11 4 -17 -4 -6 3 -5 16 2 12 6 19 14 16 17 -3 4 -1 12 5 20 10 11
14 10 25 -4 8 -11 13 -13 14 -5 0 6 7 12 15 12 8 0 12 6 9 13 -3 8 2 20 11 27
13 11 15 9 15 -11 l0 -24 25 28 c28 29 41 34 47 16 6 -18 44 6 51 31 3 14 -2
29 -14 41 -23 23 -35 24 -43 4 -4 -11 -13 -14 -30 -9 -19 4 -27 1 -36 -16 -9
-16 -14 -19 -20 -10 -10 16 -50 -8 -43 -26 2 -6 0 -15 -6 -19 -6 -3 -11 -1
-11 5 0 15 -51 9 -68 -7 -7 -7 -22 -13 -33 -13 -12 0 -19 -7 -19 -20 0 -18 -3
-19 -21 -9 -18 9 -25 7 -44 -15 -12 -14 -27 -26 -33 -26 -7 0 -9 -8 -5 -17 5
-15 3 -16 -7 -6 -11 10 -18 9 -36 -8 -13 -12 -20 -28 -17 -37 4 -9 2 -13 -4
-9 -13 8 -53 -20 -53 -39 0 -8 -6 -14 -14 -14 -7 0 -16 -9 -19 -20 -3 -11 -12
-20 -21 -20 -16 0 -20 -11 -17 -38 1 -8 -6 -16 -16 -18 -16 -5 -30 -22 -70
-89 -7 -11 -13 -15 -13 -9 0 6 -11 24 -24 39 -31 36 -40 66 -17 58 28 -10 52
-36 46 -50 -2 -8 0 -11 5 -8 14 9 13 48 -2 63 -9 9 -9 15 0 24 9 9 13 6 20
-11 l8 -23 17 26 c22 32 21 35 -3 29 -15 -4 -20 0 -20 13 -1 23 -24 56 -37 52
-16 -5 -78 56 -75 74 2 9 12 18 24 21 11 3 17 3 14 0 -3 -3 12 -26 34 -49 22
-24 40 -47 40 -51 0 -11 51 -34 61 -27 15 9 10 24 -6 18 -8 -4 -15 -2 -15 4 0
5 -13 24 -29 41 -16 17 -27 31 -25 31 3 0 -11 14 -31 31 -19 17 -32 35 -29 40
3 6 12 5 20 -2 8 -6 17 -9 21 -5 3 3 1 6 -6 6 -7 0 -9 5 -6 10 9 15 23 3 39
-33 8 -18 30 -49 48 -70 l33 -39 37 19 c44 21 47 27 14 29 -17 1 -23 -2 -19
-12 8 -22 -25 -17 -37 6 -6 11 -8 26 -4 33 4 6 4 9 -1 5 -11 -10 -35 11 -35
30 0 9 -11 27 -25 42 -18 18 -22 29 -14 40 8 13 11 13 23 -2 7 -10 15 -15 18
-13 3 3 18 -22 34 -55 16 -33 32 -60 37 -60 4 0 7 15 7 33 l1 32 17 -31 c11
-19 23 -29 32 -26 48 17 70 120 30 142 -11 6 -20 19 -20 29 0 10 -9 26 -21 37
-11 10 -18 26 -16 36 7 26 -2 22 -15 -7z"/>
<path d="M2295 3610 c-3 -5 -3 -19 0 -30 6 -18 3 -19 -26 -13 -24 5 -30 3 -24
-7 5 -8 20 -10 47 -6 22 4 45 2 52 -3 6 -5 65 -23 131 -41 66 -17 145 -38 175
-46 90 -24 254 -93 437 -184 95 -47 172 -80 170 -75 -4 12 -122 95 -185 130
-23 13 -40 20 -37 14 10 -15 -2 -11 -103 41 -53 27 -128 61 -167 75 -112 41
-214 75 -229 75 -8 0 -16 5 -18 10 -2 6 -21 13 -42 17 -28 4 -37 3 -32 -5 5
-8 2 -10 -8 -6 -9 3 -14 10 -11 14 6 9 -19 20 -43 20 -12 -1 -10 -5 8 -16 l25
-15 -34 5 c-18 3 -37 6 -42 6 -4 0 -9 10 -11 22 -3 24 -23 35 -33 18z"/>
<path d="M845 2814 c17 -14 55 -41 85 -61 30 -20 67 -44 82 -54 15 -11 32 -19
37 -19 6 0 14 -6 18 -14 4 -7 18 -19 31 -25 32 -17 152 -126 180 -164 12 -17
20 -38 17 -45 -3 -8 4 -25 15 -39 25 -32 25 -45 -1 -69 -17 -15 -48 -71 -53
-94 -1 -3 -5 -11 -9 -17 -5 -7 -5 -19 -2 -25 4 -7 -3 -2 -14 12 -11 14 -19 30
-17 35 1 6 -10 15 -26 22 -17 7 -33 25 -39 43 -7 20 -26 38 -57 55 -49 26 -86
73 -98 122 -8 32 -31 73 -89 158 -22 33 -49 87 -60 120 -12 35 -21 52 -23 41
-2 -10 1 -29 8 -41 9 -17 9 -28 0 -45 -6 -12 -9 -32 -6 -44 7 -27 -2 -41 -39
-60 -28 -15 -30 -15 -41 12 l-11 27 0 -25 c0 -32 -50 -277 -63 -308 -21 -48
-69 -97 -200 -199 -74 -59 -148 -118 -165 -133 -16 -15 -60 -44 -97 -64 -81
-45 -115 -78 -47 -47 24 11 61 23 81 26 26 4 70 32 154 98 64 51 141 109 171
130 30 21 59 51 64 65 6 15 24 54 40 88 16 34 29 70 29 81 0 27 20 83 30 83
22 0 30 -29 20 -80 -12 -62 -5 -94 17 -86 14 6 13 3 -1 -18 -10 -16 -12 -27
-6 -31 14 -9 2 -25 -14 -19 -8 3 -29 -21 -55 -65 -48 -78 -78 -101 -68 -51 4
17 2 30 -3 30 -6 0 -10 -5 -10 -10 0 -6 -24 -36 -52 -69 -29 -32 -69 -78 -88
-103 -19 -25 -38 -44 -43 -41 -4 2 -21 -7 -37 -20 -16 -14 -50 -35 -77 -48
-54 -25 -68 -40 -50 -51 32 -21 65 -8 107 42 39 47 87 80 117 80 23 0 79 42
103 78 13 18 33 38 44 44 12 6 29 18 40 27 13 12 33 15 77 13 33 -2 59 1 59 6
0 5 11 10 25 10 20 0 23 -3 14 -14 -9 -11 -8 -14 6 -14 13 0 16 -5 11 -22 -3
-13 -6 -35 -6 -49 0 -20 -12 -35 -52 -63 -46 -32 -49 -36 -28 -38 14 0 31 -2
39 -2 15 -1 26 -42 12 -50 -7 -5 -73 -18 -159 -33 -18 -3 -35 -9 -38 -14 -8
-14 73 -11 109 4 64 27 87 29 87 9 0 -15 6 -18 24 -15 17 4 25 0 28 -15 7 -27
-18 -37 -32 -14 -10 14 -11 14 -7 1 4 -13 -8 -20 -54 -34 -32 -10 -59 -21 -59
-25 0 -3 -28 -5 -62 -4 l-63 3 53 -12 c30 -7 50 -16 45 -21 -4 -4 12 -7 37 -6
112 6 209 0 223 -15 8 -8 17 -12 20 -9 3 3 5 -1 4 -8 -1 -36 4 -59 13 -53 5 3
10 17 10 31 0 17 5 24 20 24 11 0 20 -5 20 -11 0 -5 4 -8 9 -5 5 4 7 -4 3 -16
-3 -13 -11 -26 -18 -30 -7 -5 -15 -32 -19 -60 -4 -29 -13 -75 -21 -102 -8 -27
-14 -66 -13 -85 l1 -36 14 40 14 40 -5 -35 c-2 -19 -7 -55 -10 -80 l-5 -45 12
35 c14 42 22 21 16 -46 -2 -30 1 -45 10 -49 7 -3 11 -9 7 -14 -8 -14 5 -62 16
-55 5 3 9 -14 9 -38 0 -31 3 -39 10 -28 8 12 10 12 10 -5 0 -29 51 -145 61
-139 5 3 9 -7 9 -23 0 -15 9 -46 19 -68 11 -22 22 -48 25 -58 3 -9 13 -17 23
-17 15 0 18 -8 17 -40 -1 -22 2 -40 6 -40 7 0 54 -85 55 -100 0 -3 6 -14 12
-25 13 -24 28 -85 25 -102 -2 -6 2 -14 8 -18 5 -3 10 -1 10 4 0 6 5 11 11 11
6 0 9 -6 6 -14 -4 -9 3 -16 17 -20 13 -3 26 -15 29 -27 4 -15 11 -20 22 -15
12 4 19 0 22 -14 12 -47 36 -1 47 93 4 36 2 47 -8 47 -8 0 -16 -6 -19 -13 -2
-6 -2 -3 0 8 2 11 6 31 8 44 2 14 9 35 16 48 l13 23 27 -26 27 -26 0 24 c1 47
15 93 33 111 20 19 26 43 9 32 -6 -4 -2 8 7 27 24 44 29 88 10 88 -9 0 -17
-15 -21 -42 -4 -24 -7 -44 -7 -45 1 -2 -8 -19 -19 -38 -11 -20 -20 -46 -20
-59 0 -22 -26 -43 -38 -31 -3 3 0 5 7 5 8 0 11 7 7 15 -3 8 -1 15 4 15 6 0 10
14 10 31 0 16 -4 28 -9 25 -4 -3 -7 8 -5 24 2 17 -1 30 -6 30 -13 0 -13 40 0
60 8 12 10 11 10 -7 0 -16 4 -21 16 -16 9 3 12 9 7 12 -5 3 -14 20 -22 36
l-13 30 -13 -30 c-8 -19 -14 -24 -14 -13 -1 12 -6 15 -18 11 -14 -5 -15 -1
-10 30 3 20 1 39 -4 42 -5 4 -9 -1 -9 -9 0 -9 -4 -16 -9 -16 -9 0 -21 57 -21
101 0 15 -7 29 -15 33 -10 4 -15 -1 -15 -14 0 -11 -5 -20 -10 -20 -6 0 -10 6
-9 12 3 20 -12 49 -22 42 -5 -3 -6 -10 -3 -16 4 -7 2 -8 -4 -4 -6 4 -9 13 -6
20 3 8 -2 31 -11 52 -10 22 -19 35 -20 29 -2 -5 -7 -23 -11 -40 -7 -27 -9 -23
-17 35 -6 36 -10 120 -11 187 0 67 -4 119 -8 117 -8 -5 -12 10 -9 34 1 6 -3
12 -8 12 -6 0 -8 14 -6 33 4 25 3 28 -4 12 -9 -18 -10 -17 -12 10 -1 17 -1 37
-1 45 1 8 4 38 6 65 3 28 5 50 6 50 8 0 8 140 1 149 -6 7 -4 30 4 61 8 28 14
45 14 38 1 -7 8 -10 16 -7 9 4 15 0 15 -9 0 -9 4 -18 8 -21 13 -8 11 36 -5 92
-9 29 -12 56 -8 60 4 4 10 1 12 -6 3 -6 9 -10 14 -6 5 3 5 13 -1 25 -9 16 -7
19 10 19 17 0 19 4 13 28 -8 32 -8 49 7 182 0 3 5 -2 10 -10 7 -12 12 -12 22
-2 23 23 30 12 23 -38 -4 -31 -3 -50 3 -50 13 0 20 118 9 129 -5 5 -7 19 -5
32 4 23 5 23 18 -6 8 -16 23 -36 32 -43 10 -7 18 -20 18 -28 0 -8 3 -14 8 -14
7 0 32 -48 32 -63 0 -4 -4 -5 -10 -2 -7 4 -7 -2 -1 -18 6 -14 7 -28 4 -31 -4
-3 -1 -6 7 -6 9 0 10 -3 1 -14 -9 -11 -9 -15 1 -19 10 -3 8 -9 -5 -25 -11 -11
-16 -26 -12 -32 3 -6 3 -10 -2 -9 -20 4 -24 -2 -12 -18 8 -9 9 -14 4 -11 -19
11 -40 -17 -43 -57 -4 -51 32 -111 67 -109 17 1 22 -3 20 -20 -1 -11 1 -29 6
-39 7 -17 8 -17 21 0 7 10 14 14 14 9 0 -5 10 -1 21 10 l22 19 -5 -58 c-3 -32
-2 -53 2 -47 10 16 20 -41 14 -76 -3 -24 -2 -26 6 -11 13 21 30 22 30 2 0 -8
-5 -15 -10 -15 -6 0 -9 -13 -8 -29 2 -21 6 -27 19 -24 14 4 16 0 12 -15 -2
-11 0 -23 6 -26 17 -11 14 -39 -3 -33 -10 4 -13 1 -9 -9 3 -8 0 -21 -7 -29 -8
-10 -9 -19 -1 -32 9 -17 10 -17 16 -1 4 9 4 21 1 27 -4 5 3 9 15 8 25 -2 43
-40 34 -74 -4 -16 -1 -23 9 -23 8 0 22 -3 32 -7 11 -4 15 -3 10 5 -4 6 1 10
13 9 15 -1 17 -5 10 -18 -16 -31 -11 -47 15 -42 23 5 24 3 20 -52 -3 -50 -2
-56 11 -45 21 17 32 4 17 -20 -9 -16 -9 -21 4 -28 15 -8 15 -12 0 -40 -18 -35
-29 -42 -20 -14 5 15 4 15 -6 -1 -17 -27 1 -42 31 -26 13 7 28 12 32 11 5 -1
6 2 2 7 -3 6 8 25 26 43 l31 33 -7 -40 c-4 -22 -7 -48 -8 -57 -1 -9 -5 -14 -9
-12 -4 3 -8 -2 -8 -10 0 -59 95 82 150 224 21 52 79 140 93 140 8 0 6 -4 -3
-10 -13 -8 -12 -10 3 -10 9 0 17 5 17 11 0 5 5 7 10 4 6 -3 10 -1 10 5 0 7 16
31 35 54 35 43 37 59 7 49 -10 -3 -6 3 8 13 14 10 34 29 44 42 11 13 33 33 50
44 l31 19 -30 -4 c-16 -2 -43 -9 -58 -15 -36 -15 -40 -15 -30 1 4 6 6 20 4 31
-1 10 2 16 7 12 5 -3 20 6 32 19 13 14 29 25 36 25 7 0 16 5 20 12 5 8 2 9
-10 5 -14 -5 -17 -3 -12 8 6 17 -6 19 -91 15 -33 -1 -53 2 -53 9 0 6 -15 11
-32 12 -45 1 -79 12 -79 24 1 16 -43 23 -88 15 -37 -7 -41 -5 -41 12 0 14 -5
18 -15 14 -17 -6 -19 7 -5 34 8 15 5 20 -18 28 -15 5 -37 8 -49 6 -18 -3 -23
1 -23 19 0 31 -42 52 -72 36 -15 -8 -19 -8 -16 1 2 6 8 11 13 10 15 -3 27 42
13 51 -6 4 -15 6 -19 3 -12 -7 -32 25 -27 44 4 15 1 18 -17 14 -18 -3 -23 2
-28 27 -4 17 -11 31 -17 31 -6 0 -21 9 -33 20 -12 11 -27 18 -34 16 -12 -5
-17 12 -16 51 1 7 -3 11 -7 8 -5 -3 -11 4 -15 14 -4 14 -12 18 -23 14 -9 -3
-14 -2 -10 2 10 11 -29 38 -42 30 -6 -3 -10 -2 -10 3 0 15 32 24 40 12 4 -6
22 -12 41 -14 58 -6 77 -16 84 -47 4 -16 11 -27 15 -24 9 6 24 -7 67 -60 13
-14 27 -23 33 -20 6 4 10 3 9 -2 -5 -26 2 -42 16 -37 10 4 15 0 15 -15 0 -19
3 -20 20 -11 14 7 20 7 20 0 0 -5 -4 -10 -10 -10 -5 0 -10 -5 -10 -11 0 -6 9
-9 20 -6 10 3 27 -1 37 -8 17 -13 17 -14 1 -20 -29 -11 -20 -25 15 -25 24 0
41 -8 62 -30 21 -22 34 -28 52 -24 15 4 23 2 23 -6 0 -7 7 -10 15 -6 8 3 15 1
15 -5 0 -6 5 -7 10 -4 6 3 14 -4 19 -17 6 -13 10 -18 10 -11 1 17 41 3 41 -14
0 -11 5 -13 18 -8 44 18 54 18 50 -1 -2 -10 -14 -21 -28 -25 -24 -7 -24 -7 -2
-8 28 -1 59 18 133 81 31 26 59 48 63 48 17 0 1 -20 -44 -54 -28 -22 -58 -52
-66 -68 -15 -29 -15 -30 5 -23 12 3 33 8 48 11 37 7 85 43 79 60 -3 8 4 31 16
51 19 32 19 36 4 23 -16 -12 -20 -12 -35 9 -15 20 -21 22 -39 12 -24 -13 -27
-9 -13 17 8 15 4 17 -28 17 -21 0 -45 -6 -54 -14 -15 -11 -17 -11 -17 1 0 8 6
20 13 27 10 10 7 11 -15 6 -16 -4 -28 -4 -28 -1 0 4 21 30 48 59 39 43 42 48
17 33 -16 -10 -41 -28 -54 -40 -13 -11 -21 -15 -16 -7 6 11 4 13 -8 8 -22 -8
-22 1 1 26 16 19 16 20 0 14 -22 -8 -23 6 -3 23 33 27 1 36 -42 12 -23 -13
-29 -7 -24 22 1 5 -8 6 -21 2 -58 -17 -60 -17 -43 7 21 30 20 69 -3 65 -11 -2
-16 3 -14 14 2 12 -3 15 -19 11 -15 -4 -20 -3 -15 5 4 7 3 12 -3 12 -6 0 -8 7
-4 16 5 13 2 15 -15 9 -27 -8 -28 2 -4 28 15 17 14 17 -20 -2 l-36 -22 5 39 5
40 -41 -8 c-23 -4 -41 -3 -41 2 0 5 -9 4 -20 -2 -18 -10 -19 -8 -10 14 7 21 6
24 -6 19 -8 -3 -20 1 -27 10 -7 8 -24 17 -39 21 -16 3 -27 10 -27 14 3 21 -3
23 -27 7 -27 -17 -27 -17 -22 9 3 14 1 23 -3 20 -5 -3 -9 2 -9 12 0 13 -4 11
-19 -7 -11 -13 -23 -21 -27 -16 -4 4 -2 13 4 19 17 17 15 33 -3 18 -8 -7 -15
-8 -15 -2 0 5 10 17 23 26 21 16 20 16 -9 2 -17 -9 -34 -24 -36 -34 -6 -21
-38 -26 -38 -5 0 7 -7 13 -15 13 -8 0 -15 5 -15 11 0 8 -4 8 -15 -1 -19 -16
-40 -3 -25 15 8 10 6 13 -12 13 -54 -1 -111 10 -118 23 -7 10 -11 10 -24 0
-14 -11 -16 -11 -16 4 0 10 -6 15 -17 13 -42 -10 -271 129 -243 147 5 3 10 11
10 18 0 8 -3 8 -12 -1 -17 -17 -32 -15 -60 11 -23 21 -162 97 -176 97 -4 -1 7
-12 23 -26z m143 -561 c3 -20 -4 -30 -51 -68 -13 -11 -22 -25 -20 -31 4 -12
-42 -54 -59 -54 -6 0 -8 14 -6 31 4 24 1 33 -12 36 -11 3 -16 11 -13 22 3 11
-5 24 -21 35 -31 20 -33 32 -6 39 13 3 18 1 13 -6 -4 -6 2 -8 15 -5 12 4 20 3
17 -2 -5 -8 27 -20 55 -20 9 0 27 11 40 24 29 28 44 28 48 -1z"/>
<path d="M135 1799 c-18 -19 -20 -19 -26 -2 -5 16 -7 16 -13 -3 -10 -33 -5
-117 10 -141 9 -14 20 -20 34 -16 11 3 20 1 20 -4 0 -5 11 -15 25 -21 32 -15
32 -15 32 3 0 8 -3 12 -7 10 -3 -2 -11 0 -18 4 -7 4 23 19 74 37 48 16 94 34
103 41 27 20 5 25 -30 7 -18 -9 -65 -25 -104 -34 -38 -10 -79 -21 -89 -26 -25
-10 -51 23 -35 43 6 7 19 13 29 13 27 0 51 43 44 79 -7 36 -21 38 -49 10z"/>
</g>
</svg>
