<?xml version="1.0" standalone="no"?>
<!DOCTYPE svg PUBLIC "-//W3C//DTD SVG 20010904//EN"
 "http://www.w3.org/TR/2001/REC-SVG-20010904/DTD/svg10.dtd">
<svg version="1.0" xmlns="http://www.w3.org/2000/svg"
 width="338.000000pt" height="400.000000pt" viewBox="0 0 338.000000 400.000000"
 preserveAspectRatio="xMidYMid meet">

<g transform="translate(0.000000,400.000000) scale(0.100000,-0.100000)"
fill="#000000" stroke="none">
<path d="M1682 3871 c-16 -15 -24 -34 -28 -78 -7 -67 2 -80 58 -90 28 -4 40 0
60 19 24 21 25 26 12 48 -7 14 -13 32 -14 42 0 10 -7 15 -17 14 -13 -2 -19
-14 -21 -44 -2 -23 -8 -42 -14 -42 -5 0 -7 7 -4 16 3 8 2 12 -4 9 -6 -3 -10 1
-10 10 0 8 -7 18 -15 21 -38 15 8 90 48 79 17 -5 19 -4 7 4 -21 15 -32 13 -58
-8z m53 -151 c3 -5 -3 -10 -15 -10 -12 0 -18 5 -15 10 3 6 10 10 15 10 5 0 12
-4 15 -10z"/>
<path d="M1823 3883 c9 -2 25 -2 35 0 9 3 1 5 -18 5 -19 0 -27 -2 -17 -5z"/>
<path d="M1943 3883 c9 -2 25 -2 35 0 9 3 1 5 -18 5 -19 0 -27 -2 -17 -5z"/>
<path d="M2025 3880 c-13 -5 -14 -9 -5 -9 8 0 24 4 35 9 13 5 14 9 5 9 -8 0
-24 -4 -35 -9z"/>
<path d="M1613 3851 c-13 -11 -23 -28 -23 -39 0 -11 -8 -37 -17 -58 l-17 -39
-7 50 c-6 34 -4 54 4 64 8 9 2 8 -16 -4 -23 -15 -28 -24 -23 -46 3 -17 0 -32
-9 -39 -8 -7 -15 -23 -15 -37 0 -15 -4 -22 -11 -17 -6 3 -8 17 -4 31 4 18 2
23 -6 17 -8 -4 -9 -3 -5 5 4 6 2 18 -4 26 -6 8 -9 19 -5 25 9 15 -11 12 -23
-3 -11 -12 0 -62 20 -92 11 -17 -5 -32 -32 -31 -23 1 -25 -2 -22 -36 1 -20 -2
-39 -7 -42 -15 -10 -52 35 -46 55 3 9 -2 24 -11 33 -11 12 -14 25 -9 43 l6 27
-20 -25 c-19 -23 -19 -25 -1 -44 10 -11 21 -41 25 -67 4 -26 13 -53 21 -59 8
-6 14 -22 14 -35 l0 -23 23 22 c14 14 18 23 10 25 -17 4 -17 39 -1 44 7 3 19
-1 26 -9 17 -17 24 -16 48 3 16 13 16 15 2 10 -14 -4 -18 0 -18 19 0 25 12 28
52 11 9 -4 25 -3 35 4 16 10 16 10 -4 5 -12 -3 -24 -1 -28 5 -3 5 -2 10 3 10
6 0 13 12 17 27 6 26 8 26 19 10 15 -20 32 -22 39 -4 2 6 8 9 12 5 4 -4 2 -14
-5 -23 -16 -19 -9 -19 40 2 44 19 53 33 17 26 -20 -4 -22 -1 -21 31 1 24 -2
36 -11 36 -18 0 -14 82 4 104 18 21 11 20 -16 -3z"/>
<path d="M1910 3850 c0 -6 7 -10 15 -10 8 0 15 2 15 4 0 2 -7 6 -15 10 -8 3
-15 1 -15 -4z"/>
<path d="M1997 3824 c-3 -18 0 -38 10 -54 16 -23 17 -23 24 -5 11 30 10 38
-10 64 l-18 24 -6 -29z"/>
<path d="M1798 3801 c-2 -16 2 -37 9 -47 12 -17 14 -17 33 1 20 18 21 18 37
-5 14 -20 18 -21 27 -8 11 16 42 18 64 4 13 -8 32 0 32 14 0 5 -6 7 -14 4 -9
-3 -17 6 -24 25 -12 33 -32 42 -32 14 0 -14 -3 -13 -16 5 -12 18 -19 20 -35
12 -10 -6 -19 -18 -19 -27 0 -13 -3 -13 -15 -3 -8 7 -15 19 -15 26 0 27 -28
14 -32 -15z"/>
<path d="M2100 3822 c0 -7 -6 -12 -14 -12 -7 0 -21 -11 -30 -25 -18 -28 -15
-31 39 -38 29 -4 31 -3 30 30 -2 31 -25 75 -25 45z"/>
<path d="M2146 3803 c-11 -11 -6 -43 7 -43 8 0 7 -3 -3 -10 -12 -7 -11 -9 5
-9 181 4 592 -100 914 -232 79 -33 146 -57 148 -55 5 5 -70 51 -188 115 -63
33 -103 49 -115 45 -13 -4 -15 -3 -6 3 9 7 3 14 -21 25 -76 36 -247 99 -347
127 -119 33 -106 23 30 -23 69 -23 147 -52 174 -64 27 -12 56 -22 65 -22 9 0
25 -7 36 -16 19 -14 19 -15 -10 -10 -16 3 -83 23 -148 45 -64 22 -154 47 -200
56 -45 9 -112 25 -150 36 -37 11 -72 17 -78 14 -5 -4 -15 -2 -22 3 -15 12 -83
23 -91 15z m54 -43 c0 -5 -7 -10 -16 -10 -8 0 -12 5 -9 10 3 6 10 10 16 10 5
0 9 -4 9 -10z m117 -16 c-3 -3 -12 -4 -19 -1 -8 3 -5 6 6 6 11 1 17 -2 13 -5z
m83 -14 c0 -5 -7 -7 -15 -4 -8 4 -15 8 -15 10 0 2 7 4 15 4 8 0 15 -4 15 -10z
m485 -100 c3 -5 1 -10 -4 -10 -6 0 -11 5 -11 10 0 6 2 10 4 10 3 0 8 -4 11
-10z"/>
<path d="M1367 3752 c-13 -15 -14 -21 -4 -31 6 -6 12 -17 12 -23 0 -6 6 -13
13 -15 7 -3 12 5 12 21 0 14 -4 26 -9 26 -6 0 -8 9 -6 20 5 25 2 25 -18 2z"/>
<path d="M1248 3665 c-9 -21 -6 -34 21 -88 17 -36 31 -71 31 -80 0 -8 6 -17
13 -20 9 -3 9 -7 -2 -20 -17 -21 -28 -15 -26 14 1 12 -7 31 -17 41 -10 10 -18
27 -18 38 0 10 -10 28 -21 39 -14 13 -19 26 -15 37 5 14 4 15 -9 4 -20 -17
-19 -33 5 -55 25 -23 30 -96 5 -75 -8 7 -15 18 -15 26 0 7 -9 18 -21 24 -16 9
-19 18 -15 36 4 14 2 24 -4 24 -5 0 -10 -6 -10 -14 0 -7 -9 -16 -21 -19 -11
-3 -23 -15 -26 -26 -3 -12 -11 -21 -18 -21 -17 0 -74 -65 -86 -98 -8 -21 -7
-29 8 -40 45 -32 63 -53 63 -72 0 -11 -4 -20 -9 -20 -17 0 -76 65 -73 81 2 10
-2 20 -8 24 -5 3 -10 -2 -10 -14 0 -10 -3 -26 -6 -35 -4 -11 -1 -16 10 -16 9
0 16 -4 16 -8 0 -4 14 -16 31 -26 28 -16 29 -20 16 -33 -14 -14 -18 -13 -38 6
-13 11 -31 21 -40 21 -12 0 -16 6 -12 20 3 11 0 20 -6 20 -23 0 -11 -46 17
-62 15 -9 37 -25 50 -36 19 -17 20 -21 8 -31 -19 -16 -69 9 -93 45 l-17 26 -8
-22 c-5 -13 -7 -24 -6 -25 2 -1 21 -12 43 -25 58 -34 84 -70 50 -70 -22 0 -66
28 -92 59 -23 26 -23 26 -23 3 0 -12 14 -36 33 -53 31 -29 31 -30 7 -24 -25 6
-25 6 4 -18 36 -31 27 -48 -20 -40 -35 6 -36 5 -23 -16 8 -11 17 -21 21 -21 5
0 8 -6 8 -13 0 -8 -13 -12 -37 -11 -33 2 -35 0 -19 -10 10 -6 31 -21 45 -33
22 -19 23 -22 8 -23 -10 0 -28 5 -39 11 -16 9 -24 7 -37 -6 -9 -10 -10 -15 -4
-11 32 18 69 -34 44 -59 -16 -17 21 -51 72 -68 45 -15 47 -15 47 3 0 10 -5 22
-10 25 -15 9 -12 25 5 25 20 0 19 6 -7 33 l-23 22 32 3 c17 2 34 10 37 19 5
12 3 13 -6 6 -9 -6 -21 -6 -37 3 l-23 12 23 8 c13 4 26 8 29 9 18 2 31 22 41
61 6 24 15 44 20 44 5 0 9 9 9 19 0 11 5 23 10 26 14 9 13 -3 -9 -62 -10 -29
-16 -54 -13 -57 2 -3 0 -11 -6 -18 -5 -7 -13 -35 -17 -63 -4 -27 -12 -58 -17
-68 -13 -24 -13 -96 0 -109 7 -7 17 -6 31 1 17 9 20 19 17 53 -5 50 8 88 30
88 11 0 14 5 10 16 -4 10 1 25 11 36 14 16 15 18 1 13 -9 -4 -19 -2 -23 4 -4
7 3 11 18 11 19 0 26 7 31 31 3 19 1 38 -6 46 -9 11 -7 15 10 20 20 5 21 7 6
34 -13 26 -13 29 2 29 10 0 14 -5 11 -15 -9 -23 9 -26 28 -5 10 11 13 20 7 20
-19 0 -1 38 21 44 15 4 18 8 10 14 -14 9 0 38 14 29 5 -3 15 -2 23 4 10 6 11
9 3 9 -7 0 -13 9 -13 20 0 15 7 20 29 20 17 0 33 5 36 10 3 6 -4 10 -16 10
-18 0 -19 2 -9 15 7 9 21 13 31 10 16 -5 18 -2 13 24 -5 24 -3 31 10 31 9 0
16 -7 16 -15 0 -27 20 -16 27 15 5 28 23 43 23 20 0 -19 21 -10 30 13 5 12 9
18 9 13 2 -17 31 17 31 35 0 24 16 25 29 2 8 -16 11 -15 20 10 6 16 16 25 21
22 6 -4 7 -11 4 -17 -4 -6 3 -5 16 2 12 6 19 14 16 17 -3 4 -1 12 5 20 10 11
14 10 25 -4 8 -11 13 -13 14 -5 0 6 7 12 15 12 8 0 12 6 9 13 -3 8 2 20 11 27
13 11 15 9 15 -11 l0 -24 25 28 c28 29 41 34 47 16 6 -18 44 6 51 31 3 14 -2
29 -14 41 -23 23 -35 24 -43 4 -4 -11 -13 -14 -30 -9 -19 4 -27 1 -36 -16 -9
-16 -14 -19 -20 -10 -10 16 -50 -8 -43 -26 2 -6 0 -15 -6 -19 -6 -3 -11 -1
-11 5 0 15 -51 9 -68 -7 -7 -7 -22 -13 -33 -13 -12 0 -19 -7 -19 -20 0 -18 -3
-19 -21 -9 -18 9 -25 7 -44 -15 -12 -14 -27 -26 -33 -26 -7 0 -9 -8 -5 -17 5
-15 3 -16 -7 -6 -11 10 -18 9 -36 -8 -13 -12 -20 -28 -17 -37 4 -9 2 -13 -4
-9 -13 8 -53 -20 -53 -39 0 -8 -6 -14 -14 -14 -7 0 -16 -9 -19 -20 -3 -11 -12
-20 -21 -20 -16 0 -20 -11 -17 -38 1 -8 -6 -16 -16 -18 -16 -5 -30 -22 -70
-89 -7 -11 -13 -15 -13 -9 0 6 -11 24 -24 39 -31 36 -40 66 -17 58 28 -10 52
-36 46 -50 -2 -8 0 -11 5 -8 14 9 13 48 -2 63 -9 9 -9 15 0 24 9 9 13 6 20
-11 l8 -23 17 26 c22 32 21 35 -3 29 -15 -4 -20 0 -20 13 -1 23 -24 56 -37 52
-16 -5 -78 56 -75 74 2 9 12 18 24 21 11 3 17 3 14 0 -3 -3 12 -26 34 -49 22
-24 40 -47 40 -51 0 -11 51 -34 61 -27 15 9 10 24 -6 18 -8 -4 -15 -2 -15 4 0
5 -13 24 -29 41 -16 17 -27 31 -25 31 3 0 -11 14 -31 31 -19 17 -32 35 -29 40
3 6 12 5 20 -2 8 -6 17 -9 21 -5 3 3 1 6 -6 6 -7 0 -9 5 -6 10 9 15 23 3 39
-33 8 -18 30 -49 48 -70 l33 -39 37 19 c44 21 47 27 14 29 -17 1 -23 -2 -19
-12 8 -22 -25 -17 -37 6 -6 11 -8 26 -4 33 4 6 4 9 -1 5 -11 -10 -35 11 -35
30 0 9 -11 27 -25 42 -18 18 -22 29 -14 40 8 13 11 13 23 -2 7 -10 15 -15 18
-13 3 3 18 -22 34 -55 16 -33 32 -60 37 -60 4 0 7 15 7 33 l1 32 17 -31 c11
-19 23 -29 32 -26 48 17 70 120 30 142 -11 6 -20 19 -20 29 0 10 -9 26 -21 37
-11 10 -18 26 -16 36 7 26 -2 22 -15 -7z m-178 -500 c21 -25 1 -31 -22 -7 -18
18 -19 22 -6 22 8 0 21 -7 28 -15z m-23 -64 c-17 -81 -23 -96 -42 -96 -28 0
-31 31 -4 38 19 5 20 8 9 21 -10 13 -10 16 4 16 12 0 14 7 9 30 -5 26 -3 29
12 24 12 -5 15 -14 12 -33z m83 -82 c0 -14 -17 -10 -23 5 -4 10 -1 13 9 9 7
-3 14 -9 14 -14z"/>
<path d="M1846 3644 c-3 -9 -6 -31 -6 -50 0 -38 22 -47 39 -16 5 10 19 18 31
19 18 2 19 -1 10 -13 -10 -12 -8 -14 13 -14 19 0 25 4 21 15 -5 12 3 15 40 15
32 0 46 4 46 14 0 22 -22 33 -65 32 -44 -2 -68 -12 -60 -27 4 -5 -1 -9 -9 -9
-9 0 -16 5 -16 11 0 10 -24 39 -33 39 -3 0 -8 -7 -11 -16z"/>
<path d="M2072 3638 c-13 -13 -17 -78 -4 -78 4 0 14 5 22 10 13 8 12 10 -4 10
-19 0 -18 1 3 21 17 16 20 24 10 35 -14 17 -12 17 -27 2z"/>
<path d="M2187 3633 c-12 -11 -8 -31 10 -49 13 -13 14 -16 3 -12 -8 2 -21 17
-28 31 -14 29 -42 37 -42 11 0 -37 63 -67 85 -40 6 7 19 16 30 20 19 7 19 8
-4 27 -24 20 -43 24 -54 12z"/>
<path d="M2295 3610 c-3 -5 -3 -19 0 -30 6 -18 3 -19 -26 -13 -24 5 -30 3 -24
-7 5 -8 20 -10 47 -6 22 4 45 2 52 -3 6 -5 65 -23 131 -41 66 -17 145 -38 175
-46 90 -24 254 -93 437 -184 95 -47 172 -80 170 -75 -4 12 -122 95 -185 130
-23 13 -40 20 -37 14 10 -15 -2 -11 -103 41 -53 27 -128 61 -167 75 -112 41
-214 75 -229 75 -8 0 -16 5 -18 10 -2 6 -21 13 -42 17 -28 4 -37 3 -32 -5 5
-8 2 -10 -8 -6 -9 3 -14 10 -11 14 6 9 -19 20 -43 20 -12 -1 -10 -5 8 -16 l25
-15 -34 5 c-18 3 -37 6 -42 6 -4 0 -9 10 -11 22 -3 24 -23 35 -33 18z"/>
<path d="M1998 3578 c6 -6 18 -8 28 -6 14 3 12 5 -9 10 -19 3 -25 2 -19 -4z"/>
<path d="M2690 3526 c0 -2 7 -7 16 -10 8 -3 12 -2 9 4 -6 10 -25 14 -25 6z"/>
<path d="M820 3056 c0 -9 5 -16 10 -16 6 0 10 4 10 9 0 6 -4 13 -10 16 -5 3
-10 -1 -10 -9z"/>
<path d="M793 2985 c-3 -9 -3 -18 -1 -21 3 -3 8 4 11 16 6 23 -1 27 -10 5z"/>
<path d="M761 2864 c0 -11 3 -14 6 -6 3 7 2 16 -1 19 -3 4 -6 -2 -5 -13z"/>
<path d="M1080 2844 c0 -8 5 -12 10 -9 6 4 8 11 5 16 -9 14 -15 11 -15 -7z"/>
<path d="M845 2814 c17 -14 55 -41 85 -61 30 -20 67 -44 82 -54 15 -11 32 -19
37 -19 6 0 14 -6 18 -14 4 -7 18 -19 31 -25 32 -17 152 -126 180 -164 12 -17
20 -38 17 -45 -3 -8 4 -25 15 -39 25 -32 25 -45 -1 -69 -17 -15 -48 -71 -53
-94 -1 -3 -5 -11 -9 -17 -5 -7 -5 -19 -2 -25 4 -7 -3 -2 -14 12 -11 14 -19 30
-17 35 1 6 -10 15 -26 22 -17 7 -33 25 -39 43 -7 20 -26 38 -57 55 -49 26 -86
73 -98 122 -8 32 -31 73 -89 158 -22 33 -49 87 -60 120 -12 35 -21 52 -23 41
-2 -10 1 -29 8 -41 9 -17 9 -28 0 -45 -6 -12 -9 -32 -6 -44 7 -27 -2 -41 -39
-60 -28 -15 -30 -15 -41 12 l-11 27 0 -25 c0 -32 -50 -277 -63 -308 -21 -48
-69 -97 -200 -199 -74 -59 -148 -118 -165 -133 -16 -15 -60 -44 -97 -64 -81
-45 -115 -78 -47 -47 24 11 61 23 81 26 26 4 70 32 154 98 64 51 141 109 171
130 30 21 59 51 64 65 6 15 24 54 40 88 16 34 29 70 29 81 0 27 20 83 30 83
22 0 30 -29 20 -80 -12 -62 -5 -94 17 -86 14 6 13 3 -1 -18 -10 -16 -12 -27
-6 -31 14 -9 2 -25 -14 -19 -8 3 -29 -21 -55 -65 -48 -78 -78 -101 -68 -51 4
17 2 30 -3 30 -6 0 -10 -5 -10 -10 0 -6 -24 -36 -52 -69 -29 -32 -69 -78 -88
-103 -19 -25 -38 -44 -43 -41 -4 2 -21 -7 -37 -20 -16 -14 -50 -35 -77 -48
-54 -25 -68 -40 -50 -51 32 -21 65 -8 107 42 39 47 87 80 117 80 23 0 79 42
103 78 13 18 33 38 44 44 12 6 29 18 40 27 13 12 33 15 77 13 33 -2 59 1 59 6
0 5 11 10 25 10 20 0 23 -3 14 -14 -9 -11 -8 -14 6 -14 13 0 16 -5 11 -22 -3
-13 -6 -35 -6 -49 0 -20 -12 -35 -52 -63 -46 -32 -49 -36 -28 -38 14 0 31 -2
39 -2 15 -1 26 -42 12 -50 -7 -5 -73 -18 -159 -33 -18 -3 -35 -9 -38 -14 -8
-14 73 -11 109 4 64 27 87 29 87 9 0 -15 6 -18 24 -15 17 4 25 0 28 -15 7 -27
-18 -37 -32 -14 -10 14 -11 14 -7 1 4 -13 -8 -20 -54 -34 -32 -10 -59 -21 -59
-25 0 -3 -28 -5 -62 -4 l-63 3 53 -12 c30 -7 50 -16 45 -21 -4 -4 12 -7 37 -6
112 6 209 0 223 -15 8 -8 17 -12 20 -9 3 3 5 -1 4 -8 -1 -36 4 -59 13 -53 5 3
10 17 10 31 0 17 5 24 20 24 11 0 20 -5 20 -11 0 -5 4 -8 9 -5 5 4 7 -4 3 -16
-3 -13 -11 -26 -18 -30 -7 -5 -15 -32 -19 -60 -4 -29 -13 -75 -21 -102 -8 -27
-14 -66 -13 -85 l1 -36 14 40 14 40 -5 -35 c-2 -19 -7 -55 -10 -80 l-5 -45 12
35 c14 42 22 21 16 -46 -2 -30 1 -45 10 -49 7 -3 11 -9 7 -14 -8 -14 5 -62 16
-55 5 3 9 -14 9 -38 0 -31 3 -39 10 -28 8 12 10 12 10 -5 0 -29 51 -145 61
-139 5 3 9 -7 9 -23 0 -15 9 -46 19 -68 11 -22 22 -48 25 -58 3 -9 13 -17 23
-17 15 0 18 -8 17 -40 -1 -22 2 -40 6 -40 7 0 54 -85 55 -100 0 -3 6 -14 12
-25 13 -24 28 -85 25 -102 -2 -6 2 -14 8 -18 5 -3 10 -1 10 4 0 6 5 11 11 11
6 0 9 -6 6 -14 -4 -9 3 -16 17 -20 13 -3 26 -15 29 -27 4 -15 11 -20 22 -15
12 4 19 0 22 -14 12 -47 36 -1 47 93 4 36 2 47 -8 47 -8 0 -16 -6 -19 -13 -2
-6 -2 -3 0 8 2 11 6 31 8 44 2 14 9 35 16 48 l13 23 27 -26 27 -26 0 24 c1 47
15 93 33 111 20 19 26 43 9 32 -6 -4 -2 8 7 27 24 44 29 88 10 88 -9 0 -17
-15 -21 -42 -4 -24 -7 -44 -7 -45 1 -2 -8 -19 -19 -38 -11 -20 -20 -46 -20
-59 0 -22 -26 -43 -38 -31 -3 3 0 5 7 5 8 0 11 7 7 15 -3 8 -1 15 4 15 6 0 10
14 10 31 0 16 -4 28 -9 25 -4 -3 -7 8 -5 24 2 17 -1 30 -6 30 -13 0 -13 40 0
60 8 12 10 11 10 -7 0 -16 4 -21 16 -16 9 3 12 9 7 12 -5 3 -14 20 -22 36
l-13 30 -13 -30 c-8 -19 -14 -24 -14 -13 -1 12 -6 15 -18 11 -14 -5 -15 -1
-10 30 3 20 1 39 -4 42 -5 4 -9 -1 -9 -9 0 -9 -4 -16 -9 -16 -9 0 -21 57 -21
101 0 15 -7 29 -15 33 -10 4 -15 -1 -15 -14 0 -11 -5 -20 -10 -20 -6 0 -10 6
-9 12 3 20 -12 49 -22 42 -5 -3 -6 -10 -3 -16 4 -7 2 -8 -4 -4 -6 4 -9 13 -6
20 3 8 -2 31 -11 52 -10 22 -19 35 -20 29 -2 -5 -7 -23 -11 -40 -7 -27 -9 -23
-17 35 -6 36 -10 120 -11 187 0 67 -4 119 -8 117 -8 -5 -12 10 -9 34 1 6 -3
12 -8 12 -6 0 -8 14 -6 33 4 25 3 28 -4 12 -9 -18 -10 -17 -12 10 -1 17 -1 37
-1 45 1 8 4 38 6 65 3 28 5 50 6 50 8 0 8 140 1 149 -6 7 -4 30 4 61 8 28 14
45 14 38 1 -7 8 -10 16 -7 9 4 15 0 15 -9 0 -9 4 -18 8 -21 13 -8 11 36 -5 92
-9 29 -12 56 -8 60 4 4 10 1 12 -6 3 -6 9 -10 14 -6 5 3 5 13 -1 25 -9 16 -7
19 10 19 17 0 19 4 13 28 -8 32 -8 49 7 182 0 3 5 -2 10 -10 7 -12 12 -12 22
-2 23 23 30 12 23 -38 -4 -31 -3 -50 3 -50 13 0 20 118 9 129 -5 5 -7 19 -5
32 4 23 5 23 18 -6 8 -16 23 -36 32 -43 10 -7 18 -20 18 -28 0 -8 3 -14 8 -14
7 0 32 -48 32 -63 0 -4 -4 -5 -10 -2 -7 4 -7 -2 -1 -18 6 -14 7 -28 4 -31 -4
-3 -1 -6 7 -6 9 0 10 -3 1 -14 -9 -11 -9 -15 1 -19 10 -3 8 -9 -5 -25 -11 -11
-16 -26 -12 -32 3 -6 3 -10 -2 -9 -20 4 -24 -2 -12 -18 8 -9 9 -14 4 -11 -19
11 -40 -17 -43 -57 -4 -51 32 -111 67 -109 17 1 22 -3 20 -20 -1 -11 1 -29 6
-39 7 -17 8 -17 21 0 7 10 14 14 14 9 0 -5 10 -1 21 10 l22 19 -5 -58 c-3 -32
-2 -53 2 -47 10 16 20 -41 14 -76 -3 -24 -2 -26 6 -11 13 21 30 22 30 2 0 -8
-5 -15 -10 -15 -6 0 -9 -13 -8 -29 2 -21 6 -27 19 -24 14 4 16 0 12 -15 -2
-11 0 -23 6 -26 17 -11 14 -39 -3 -33 -10 4 -13 1 -9 -9 3 -8 0 -21 -7 -29 -8
-10 -9 -19 -1 -32 9 -17 10 -17 16 -1 4 9 4 21 1 27 -4 5 3 9 15 8 25 -2 43
-40 34 -74 -4 -16 -1 -23 9 -23 8 0 22 -3 32 -7 11 -4 15 -3 10 5 -4 6 1 10
13 9 15 -1 17 -5 10 -18 -16 -31 -11 -47 15 -42 23 5 24 3 20 -52 -3 -50 -2
-56 11 -45 21 17 32 4 17 -20 -9 -16 -9 -21 4 -28 15 -8 15 -12 0 -40 -18 -35
-29 -42 -20 -14 5 15 4 15 -6 -1 -17 -27 1 -42 31 -26 13 7 28 12 32 11 5 -1
6 2 2 7 -3 6 8 25 26 43 l31 33 -7 -40 c-4 -22 -7 -48 -8 -57 -1 -9 -5 -14 -9
-12 -4 3 -8 -2 -8 -10 0 -59 95 82 150 224 21 52 79 140 93 140 8 0 6 -4 -3
-10 -13 -8 -12 -10 3 -10 9 0 17 5 17 11 0 5 5 7 10 4 6 -3 10 -1 10 5 0 7 16
31 35 54 35 43 37 59 7 49 -10 -3 -6 3 8 13 14 10 34 29 44 42 11 13 33 33 50
44 l31 19 -30 -4 c-16 -2 -43 -9 -58 -15 -36 -15 -40 -15 -30 1 4 6 6 20 4 31
-1 10 2 16 7 12 5 -3 20 6 32 19 13 14 29 25 36 25 7 0 16 5 20 12 5 8 2 9
-10 5 -14 -5 -17 -3 -12 8 6 17 -6 19 -91 15 -33 -1 -53 2 -53 9 0 6 -15 11
-32 12 -45 1 -79 12 -79 24 1 16 -43 23 -88 15 -37 -7 -41 -5 -41 12 0 14 -5
18 -15 14 -17 -6 -19 7 -5 34 8 15 5 20 -18 28 -15 5 -37 8 -49 6 -18 -3 -23
1 -23 19 0 31 -42 52 -72 36 -15 -8 -19 -8 -16 1 2 6 8 11 13 10 15 -3 27 42
13 51 -6 4 -15 6 -19 3 -12 -7 -32 25 -27 44 4 15 1 18 -17 14 -18 -3 -23 2
-28 27 -4 17 -11 31 -17 31 -6 0 -21 9 -33 20 -12 11 -27 18 -34 16 -12 -5
-17 12 -16 51 1 7 -3 11 -7 8 -5 -3 -11 4 -15 14 -4 14 -12 18 -23 14 -9 -3
-14 -2 -10 2 10 11 -29 38 -42 30 -6 -3 -10 -2 -10 3 0 15 32 24 40 12 4 -6
22 -12 41 -14 58 -6 77 -16 84 -47 4 -16 11 -27 15 -24 9 6 24 -7 67 -60 13
-14 27 -23 33 -20 6 4 10 3 9 -2 -5 -26 2 -42 16 -37 10 4 15 0 15 -15 0 -19
3 -20 20 -11 14 7 20 7 20 0 0 -5 -4 -10 -10 -10 -5 0 -10 -5 -10 -11 0 -6 9
-9 20 -6 10 3 27 -1 37 -8 17 -13 17 -14 1 -20 -29 -11 -20 -25 15 -25 24 0
41 -8 62 -30 21 -22 34 -28 52 -24 15 4 23 2 23 -6 0 -7 7 -10 15 -6 8 3 15 1
15 -5 0 -6 5 -7 10 -4 6 3 14 -4 19 -17 6 -13 10 -18 10 -11 1 17 41 3 41 -14
0 -11 5 -13 18 -8 44 18 54 18 50 -1 -2 -10 -14 -21 -28 -25 -24 -7 -24 -7 -2
-8 28 -1 59 18 133 81 31 26 59 48 63 48 17 0 1 -20 -44 -54 -28 -22 -58 -52
-66 -68 -15 -29 -15 -30 5 -23 12 3 33 8 48 11 37 7 85 43 79 60 -3 8 4 31 16
51 19 32 19 36 4 23 -16 -12 -20 -12 -35 9 -15 20 -21 22 -39 12 -24 -13 -27
-9 -13 17 8 15 4 17 -28 17 -21 0 -45 -6 -54 -14 -15 -11 -17 -11 -17 1 0 8 6
20 13 27 10 10 7 11 -15 6 -16 -4 -28 -4 -28 -1 0 4 21 30 48 59 39 43 42 48
17 33 -16 -10 -41 -28 -54 -40 -13 -11 -21 -15 -16 -7 6 11 4 13 -8 8 -22 -8
-22 1 1 26 16 19 16 20 0 14 -22 -8 -23 6 -3 23 33 27 1 36 -42 12 -23 -13
-29 -7 -24 22 1 5 -8 6 -21 2 -58 -17 -60 -17 -43 7 21 30 20 69 -3 65 -11 -2
-16 3 -14 14 2 12 -3 15 -19 11 -15 -4 -20 -3 -15 5 4 7 3 12 -3 12 -6 0 -8 7
-4 16 5 13 2 15 -15 9 -27 -8 -28 2 -4 28 15 17 14 17 -20 -2 l-36 -22 5 39 5
40 -41 -8 c-23 -4 -41 -3 -41 2 0 5 -9 4 -20 -2 -18 -10 -19 -8 -10 14 7 21 6
24 -6 19 -8 -3 -20 1 -27 10 -7 8 -24 17 -39 21 -16 3 -27 10 -27 14 3 21 -3
23 -27 7 -27 -17 -27 -17 -22 9 3 14 1 23 -3 20 -5 -3 -9 2 -9 12 0 13 -4 11
-19 -7 -11 -13 -23 -21 -27 -16 -4 4 -2 13 4 19 17 17 15 33 -3 18 -8 -7 -15
-8 -15 -2 0 5 10 17 23 26 21 16 20 16 -9 2 -17 -9 -34 -24 -36 -34 -6 -21
-38 -26 -38 -5 0 7 -7 13 -15 13 -8 0 -15 5 -15 11 0 8 -4 8 -15 -1 -19 -16
-40 -3 -25 15 8 10 6 13 -12 13 -54 -1 -111 10 -118 23 -7 10 -11 10 -24 0
-14 -11 -16 -11 -16 4 0 10 -6 15 -17 13 -42 -10 -271 129 -243 147 5 3 10 11
10 18 0 8 -3 8 -12 -1 -17 -17 -32 -15 -60 11 -23 21 -162 97 -176 97 -4 -1 7
-12 23 -26z m440 -274 c3 -5 1 -10 -6 -10 -6 0 4 -13 22 -30 19 -16 39 -30 46
-30 6 0 25 -11 41 -25 16 -13 32 -21 36 -18 9 10 -5 -29 -16 -44 -5 -6 -6 -23
-2 -37 4 -16 2 -26 -5 -26 -6 0 -11 5 -11 12 0 6 -33 55 -74 109 -41 53 -72
100 -69 103 10 9 31 7 38 -4z m-392 -60 c9 -11 17 -25 17 -30 0 -13 -17 -13
-25 0 -10 16 -22 12 -62 -22 -20 -18 -34 -27 -29 -20 4 7 2 12 -6 12 -10 0
-10 2 1 9 7 5 11 14 7 20 -4 6 -2 9 6 6 8 -3 25 6 38 20 28 30 31 30 53 5z
m84 -22 c-3 -8 -6 -5 -6 6 -1 11 2 17 5 13 3 -3 4 -12 1 -19z m-27 -8 c0 -5
-2 -10 -4 -10 -3 0 -8 5 -11 10 -3 6 -1 10 4 10 6 0 11 -4 11 -10z m39 -75 c1
-5 11 -13 21 -17 14 -5 18 -13 13 -25 -14 -39 -43 -58 -43 -29 0 8 -5 16 -12
18 -6 2 -14 28 -18 57 l-7 52 22 -23 c12 -13 22 -27 24 -33z m741 39 c0 -8 -4
-12 -10 -9 -5 3 -10 1 -10 -6 0 -7 -3 -9 -6 -6 -4 4 -1 13 6 22 16 19 20 19
20 -1z m-838 -24 c47 -13 64 -35 20 -26 -18 5 -44 1 -66 -8 -44 -18 -61 -2
-26 26 26 21 24 21 72 8z m553 -10 c-3 -5 -14 -10 -23 -10 -15 0 -15 2 -2 10
20 13 33 13 25 0z m78 -50 c14 -11 31 -20 37 -20 7 0 10 -8 7 -19 -3 -14 0
-17 14 -14 20 6 24 -4 11 -23 -9 -15 -50 0 -58 21 -4 10 -14 13 -30 9 -18 -5
-24 -2 -24 11 0 9 5 13 10 10 14 -9 12 19 -2 33 -20 20 7 14 35 -8z m-635 1
c10 -6 8 -10 -9 -14 -26 -7 -42 0 -34 14 8 11 26 11 43 0z m100 -78 c3 -20 -4
-30 -51 -68 -13 -11 -22 -25 -20 -31 4 -12 -42 -54 -59 -54 -6 0 -8 14 -6 31
4 24 1 33 -12 36 -11 3 -16 11 -13 22 3 11 -5 24 -21 35 -31 20 -33 32 -6 39
13 3 18 1 13 -6 -4 -6 2 -8 15 -5 12 4 20 3 17 -2 -5 -8 27 -20 55 -20 9 0 27
11 40 24 29 28 44 28 48 -1z m158 -2 c5 -5 20 -11 32 -13 23 -3 24 -3 5 -24
l-18 -21 -22 34 c-21 31 -19 45 3 24z m191 -66 c0 -8 -4 -12 -9 -9 -5 3 -6 10
-3 15 9 13 12 11 12 -6z m-587 1 c0 -3 -4 -8 -10 -11 -5 -3 -10 -1 -10 4 0 6
5 11 10 11 6 0 10 -2 10 -4z m797 -236 c-7 -28 9 -25 18 3 4 15 8 18 12 9 7
-18 -17 -62 -34 -62 -7 0 -13 -8 -14 -17 -3 -70 -19 -99 -19 -35 0 22 -3 47
-6 55 -3 8 2 22 11 31 9 9 14 16 10 16 -3 0 -3 5 0 10 11 18 27 11 22 -10z
m-597 -51 c0 -5 -4 -9 -10 -9 -5 0 -10 7 -10 16 0 8 5 12 10 9 6 -3 10 -10 10
-16z m637 -11 c-3 -8 -6 -5 -6 6 -1 11 2 17 5 13 3 -3 4 -12 1 -19z m-667 2
c0 -5 -2 -10 -4 -10 -3 0 -8 5 -11 10 -3 6 -1 10 4 10 6 0 11 -4 11 -10z m64
-145 c-8 -19 -20 -12 -27 15 -4 17 -2 18 14 10 10 -6 16 -17 13 -25z m126
-136 c0 -6 -9 -22 -20 -36 -23 -30 -24 -28 -9 16 11 30 29 43 29 20z m1127
-59 c-19 -16 -39 -30 -43 -30 -11 1 57 60 68 60 5 0 -7 -13 -25 -30z m-520 0
c-1 -11 -5 -20 -9 -20 -10 0 -10 4 -2 24 8 22 13 20 11 -4z m-2 -40 c3 -5 1
-10 -4 -10 -6 0 -11 5 -11 10 0 6 2 10 4 10 3 0 8 -4 11 -10z m515 -12 c0 6 4
12 8 12 5 0 9 -7 9 -15 0 -18 -97 -147 -114 -153 -15 -4 -18 24 -3 33 6 3 8
-2 4 -12 -5 -17 -4 -17 8 0 7 10 21 28 31 39 9 12 17 27 17 33 0 7 6 18 14 24
8 7 12 22 9 34 -4 18 -3 19 6 7 7 -10 11 -11 11 -2z m-1030 -230 c0 -7 -5 -20
-10 -28 -8 -12 -10 -9 -10 13 0 15 5 27 10 27 6 0 10 -6 10 -12z m60 -29 c0
-6 -4 -7 -10 -4 -5 3 -10 11 -10 16 0 6 5 7 10 4 6 -3 10 -11 10 -16z m0 -130
c0 -5 -7 -9 -15 -9 -9 0 -12 6 -9 15 6 15 24 11 24 -6z"/>
<path d="M731 2694 c0 -11 3 -14 6 -6 3 7 2 16 -1 19 -3 4 -6 -2 -5 -13z"/>
<path d="M1110 2696 c0 -3 14 -12 30 -21 17 -9 30 -13 30 -11 0 3 -13 12 -30
21 -16 9 -30 13 -30 11z"/>
<path d="M966 2672 c-3 -6 -1 -14 5 -17 15 -10 25 3 12 16 -7 7 -13 7 -17 1z"/>
<path d="M1095 2550 c3 -5 11 -10 16 -10 6 0 7 5 4 10 -3 6 -11 10 -16 10 -6
0 -7 -4 -4 -10z"/>
<path d="M1180 2426 c0 -4 9 -19 20 -33 12 -16 18 -34 14 -47 -7 -29 32 -68
46 -46 9 14 10 93 1 84 -2 -2 -11 2 -19 9 -13 10 -14 9 -7 -3 4 -8 -6 -2 -23
14 -18 17 -32 26 -32 22z"/>
<path d="M1455 2160 c-13 -6 -15 -9 -5 -9 13 -1 13 -2 0 -11 -9 -6 -10 -10 -3
-10 7 0 17 9 23 20 6 11 9 20 8 19 -2 0 -12 -4 -23 -9z"/>
<path d="M1620 2140 c0 -5 5 -10 10 -10 6 0 10 5 10 10 0 6 -4 10 -10 10 -5 0
-10 -4 -10 -10z"/>
<path d="M1370 2115 c0 -8 2 -15 4 -15 2 0 6 7 10 15 3 8 1 15 -4 15 -6 0 -10
-7 -10 -15z"/>
<path d="M1412 2100 c-6 -11 -8 -22 -3 -25 5 -3 12 1 15 7 3 7 4 -7 2 -31 -2
-26 -8 -47 -16 -49 -9 -3 -11 1 -7 12 8 21 -16 21 -33 0 -8 -8 -9 -14 -4 -13
21 5 44 -15 44 -37 0 -13 5 -24 10 -24 6 0 10 9 10 20 0 24 31 90 42 90 11 0
10 -17 -2 -41 -6 -10 -8 -19 -6 -19 3 0 12 13 21 30 18 34 20 80 3 80 -6 0 -8
-3 -5 -7 7 -6 -21 -32 -35 -33 -5 0 -8 11 -8 24 0 32 -13 40 -28 16z"/>
<path d="M1360 2061 c0 -5 5 -13 10 -16 6 -3 10 -2 10 4 0 5 -4 13 -10 16 -5
3 -10 2 -10 -4z"/>
<path d="M1785 1990 c-3 -5 -2 -10 4 -10 5 0 13 5 16 10 3 6 2 10 -4 10 -5 0
-13 -4 -16 -10z"/>
<path d="M2379 1983 c-13 -16 -12 -17 4 -4 9 7 17 15 17 17 0 8 -8 3 -21 -13z"/>
<path d="M1350 1980 c0 -5 5 -10 11 -10 5 0 7 5 4 10 -3 6 -8 10 -11 10 -2 0
-4 -4 -4 -10z"/>
<path d="M2566 1847 c-15 -19 -26 -42 -25 -53 0 -11 3 -13 6 -6 2 7 18 25 34
41 29 29 37 51 20 51 -6 0 -21 -15 -35 -33z"/>
<path d="M2440 1860 c-9 -6 -10 -10 -3 -10 6 0 15 5 18 10 8 12 4 12 -15 0z"/>
<path d="M2474 1847 c-11 -12 -33 -32 -49 -43 -34 -25 -29 -42 7 -23 22 12 22
11 8 -7 -14 -18 -14 -18 3 -5 10 8 16 19 14 25 -3 6 7 23 21 38 14 15 24 30
21 32 -2 3 -13 -5 -25 -17z"/>
<path d="M2502 1834 c-17 -21 -29 -41 -26 -45 5 -9 33 17 52 50 22 38 6 35
-26 -5z"/>
<path d="M2595 1810 c-22 -22 -34 -40 -28 -40 7 0 14 4 17 9 3 5 14 7 24 5 11
-3 29 7 47 27 22 23 25 29 9 21 -11 -6 -26 -18 -34 -26 -7 -9 -17 -16 -23 -16
-6 0 0 11 13 25 39 42 16 37 -25 -5z"/>
<path d="M135 1799 c-18 -19 -20 -19 -26 -2 -5 16 -7 16 -13 -3 -10 -33 -5
-117 10 -141 9 -14 20 -20 34 -16 11 3 20 1 20 -4 0 -5 11 -15 25 -21 32 -15
32 -15 32 3 0 8 -3 12 -7 10 -3 -2 -11 0 -18 4 -7 4 23 19 74 37 48 16 94 34
103 41 27 20 5 25 -30 7 -18 -9 -65 -25 -104 -34 -38 -10 -79 -21 -89 -26 -25
-10 -51 23 -35 43 6 7 19 13 29 13 27 0 51 43 44 79 -7 36 -21 38 -49 10z"/>
<path d="M2664 1788 l-19 -23 23 19 c12 11 22 21 22 23 0 8 -8 2 -26 -19z"/>
<path d="M2148 1793 c7 -3 16 -2 19 1 4 3 -2 6 -13 5 -11 0 -14 -3 -6 -6z"/>
<path d="M1501 1754 c0 -11 3 -14 6 -6 3 7 2 16 -1 19 -3 4 -6 -2 -5 -13z"/>
<path d="M479 1743 c-13 -15 -12 -15 9 -4 23 12 28 21 13 21 -5 0 -15 -7 -22
-17z"/>
<path d="M430 1675 c-14 -8 -35 -20 -47 -26 -13 -7 -23 -16 -23 -21 0 -5 -11
-13 -25 -18 -14 -5 -25 -14 -25 -20 0 -14 0 -14 81 25 46 22 90 36 119 37 l45
1 -55 7 c-30 4 -45 7 -32 8 26 2 30 22 5 22 -10 0 -29 -7 -43 -15z"/>
<path d="M2332 1616 c-46 -33 -51 -40 -22 -31 14 4 27 11 30 14 3 4 16 15 30
24 14 10 18 17 10 17 -8 -1 -30 -11 -48 -24z"/>
<path d="M240 1590 c18 -12 50 -13 50 -2 0 4 -15 8 -33 9 -23 2 -28 0 -17 -7z"/>
<path d="M1546 1585 c-9 -26 -7 -32 5 -12 6 10 9 21 6 23 -2 3 -7 -2 -11 -11z"/>
<path d="M992 1489 c-1 -14 -4 -48 -7 -75 -5 -41 -4 -45 5 -24 6 13 9 47 7 75
-2 27 -4 38 -5 24z"/>
<path d="M1487 1369 c-9 -17 -17 -43 -17 -57 1 -20 6 -13 20 27 23 63 22 72
-3 30z"/>
<path d="M2156 1291 c-10 -10 -14 -21 -9 -24 4 -3 16 6 26 19 21 28 8 32 -17
5z"/>
<path d="M1528 858 c-10 -12 -15 -24 -12 -27 3 -3 9 1 14 8 6 11 9 10 13 -5 3
-12 5 -6 6 14 1 38 1 38 -21 10z"/>
<path d="M1667 750 c-3 -11 -1 -20 4 -20 5 0 9 9 9 20 0 11 -2 20 -4 20 -2 0
-6 -9 -9 -20z"/>
<path d="M1571 714 c0 -11 3 -14 6 -6 3 7 2 16 -1 19 -3 4 -6 -2 -5 -13z"/>
<path d="M1566 675 c-3 -8 -1 -15 4 -15 6 0 10 7 10 15 0 8 -2 15 -4 15 -2 0
-6 -7 -10 -15z"/>
<path d="M1541 484 c0 -11 3 -14 6 -6 3 7 2 16 -1 19 -3 4 -6 -2 -5 -13z"/>
</g>
</svg>
